<?xml version="1.0" encoding="UTF-8"?>
<svg id="Layer_2" data-name="Layer 2" xmlns="http://www.w3.org/2000/svg" viewBox="0 0 797.8 729.24">
  <defs>
    <style>
      .cls-1 {
        fill: #000;
        fill-rule: evenodd;
        stroke-width: 0px;
      }
    </style>
  </defs>
  <g id="Objects">
    <g>
      <path class="cls-1" d="M56.54,213.53s0,.02,0,.02c0,0,0,0,.01,0v-.02Z"/>
      <path class="cls-1" d="M795.49,252.63c-6.18-.22-12.36-.44-18.54-.59-1.38-.03-2.78.1-4.15.35-11.07,2.01-19.03,8.38-24.93,17.71-.87,1.39-1.82,3.08-3.18,3.74-3.39,1.67-7.04,2.83-11.61,4.59,3.61-5.5,6.83-10.13,9.75-14.93,2.88-4.73,5.65-9.54,8.12-14.49,2.51-5.04,4.61-10.28,7.06-15.83,4.45,3.51,8.73,3.43,13.02,1.23,2.47-1.27,4.94-2.63,7.12-4.32,1.74-1.36,3.04-3.29,4.9-5.37-2.9-1.79-5.17-3.18-7.49-4.62.97-2.06,2.58-4.4.17-6.23-1.72-1.29-4.04-1.77-6.18-2.64.14-.45.4-1.01.5-1.62.46-2.69-.56-4.88-2.85-6.24-2.16-1.27-4.13-.87-6,.63-1.21.96-2.33,2.11-3.69,2.8-2.47,1.25-3.48,3.31-4.12,5.82-1.21,4.7-.39,9.18,1.04,13.67.43,1.38.89,3.06.5,4.35-2.33,7.7-5,15.28-9.27,22.18-2.84,4.6-5.41,9.39-8.41,13.88-3.42,5.14-6.66,10.56-10.93,14.94-7.97,8.18-16.61,15.71-25.01,23.48-1.28,1.18-2.74,2.17-4.29,3.38.96-6.34,1.67-12.14,2.77-17.87.45-2.36,1.57-4.64,2.61-6.85.86-1.8,1.93-3.52,3.11-5.14,4.02-5.51,8.05-10.89,15.01-13.27,7.78-2.67,12.28-8.64,14.3-16.42,1.93-7.46,3.58-15.01,5.29-22.52.11-.5-.1-1.42-.45-1.6-.56-.29-1.52-.4-2.02-.11-1.87,1.09-3.58,2.42-5.41,3.57-4.18,2.62-8.45,5.11-12.59,7.8-5.54,3.6-8.5,9.02-9.48,15.34-.69,4.53-.63,9.19-.69,13.79-.03,2.57-.62,4.72-2.26,6.77-2.02,2.51-3.69,5.29-5.55,7.92-.68.96-1.49,1.83-2.66,3.24-.72-3.97-1.04-7.37-2.01-10.56-2.02-6.67-1.01-12.56,2.72-18.47,4.79-7.58,4.72-15.84,1.61-24.08-2.07-5.49-4.34-10.89-6.58-16.31-.5-1.2-.83-2.8-2.99-2.42-.16.49-.36,1.05-.5,1.61-1.18,4.63-2.23,9.29-3.56,13.88-1.24,4.29-2.88,8.46-4.12,12.75-1.87,6.54,1.59,18.44,8.68,22.12.87,5.47,1.73,10.8,2.57,16.14.63,3.97,1.92,7.98,1.7,11.91-.39,7.23-1.1,14.51-4.18,21.28-1.34,2.93-3.36,5.01-6.91,6.25-.28-2.69-.77-5.13-.73-7.55.09-5.82-1.25-11.35-2.85-16.86-.6-2.08-1.16-4.17-1.75-6.25-1.93-6.83-3.61-13.74-5.87-20.46-2.66-7.91-5.76-15.67-8.79-23.44-2.01-5.18-3.75-10.56-6.49-15.34-3.23-5.63-4.19-11.43-4.24-17.73-.03-4.09,1.47-6.88,4.92-8.69,6.84-3.6,13.71-7.13,20.6-10.62,2.68-1.36,5.22-.83,7.98.33,6.83,2.87,13.98,4.3,21.24,1.74,7.43-2.62,13.97-6.99,18.7-13.21,3.75-4.93,7.36-9.84,12.12-13.84.7-.59,1.1-1.54,2.17-3.09-5.79.47-10.62.89-15.46,1.24-4.62.34-9.25.8-13.87.84-4.13.04-8.02.77-11.62,2.71-3.4,1.83-6.63,3.95-9.99,5.87-3.84,2.19-6.31,5.39-7.41,9.64-.68,2.59-2.13,4.28-4.77,5.18-2.03.69-3.91,1.86-5.82,2.87-5.7,3.01-11.38,6.05-17.45,9.29.23-2,.31-3.95.7-5.83.88-4.24,1.99-8.43,2.87-12.67,2.38-11.46,2.65-11.9,12.36-18.24.13-.09.25-.18.39-.26,2.45-1.58,4.6-2.33,7.6-.41,3.18,2.04,6.91,3.91,10.96,2.76,4.61-1.32,9.28-2.89,12.28-6.98,2.46-3.34,4.87-6.79,6.74-10.48,2.65-5.23,4.77-10.71,7.08-16.11.16-.37-.03-.89-.07-1.54-.6-.1-1.35-.46-1.71-.23-2.88,1.86-6.18,1.69-9.36,2.27-3.31.6-6.58,1.68-9.69,2.96-2.11.87-3.8,2.73-5.9,3.65-7.79,3.4-12.22,9.67-15.25,17.23-.34.84-.5,1.99-1.14,2.45-2.97,2.13-6.07,4.07-10.02,6.67,4.2-16.57,11.21-30.98,16.98-45.9,1.13.21,2.03.49,2.94.53,4.82.21,11.86-2.24,13.54-8.45.41-1.49,1.14-2.88,1.59-4.36.92-3.04.28-4.01-2.75-4.29-.74-.07-1.51.11-1.89.14-1.07-1.25-1.95-3.1-2.79-3.09-2.15.04-4.27.91-6.66,1.51-.11-.22-.46-.72-.64-1.29-.65-2.1-2.23-2.99-4.23-2.93-1.91.06-2.86,1.46-3.61,3.15-1.13,2.53-1.39,5.08-.69,7.7.95,3.55,2.08,7.05,3.27,11.05-9.48,19.53-18.09,39.94-23.03,61.82-1.45-3.2-2.7-6.19-1.22-9.66,1.93-4.55,3.73-9.16,5.37-13.82,1.53-4.35,1.88-8.91-.1-13.16-3.08-6.6-6.6-12.95-12.48-17.63-3.15-2.51-6.12-5.23-7.89-8.99-.22-.46-.84-.73-1.38-1.17-.42.59-.82.9-.91,1.29-1.77,7.52-3.62,15.02-5.23,22.58-2.88,13.56,3.46,23.63,14.24,29.84,2.81,1.61,4.67,3.22,4.69,6.54,0,.76.16,1.56.44,2.28,1.15,3.01,3.09,5.93,3.37,9.02.29,3.09-1.09,6.33-1.64,9.51-.72,4.14-1.34,8.3-2.16,13.37-1.66-3.11-2.8-5.44-4.13-7.67-4.49-7.57-8.75-15.3-13.67-22.58-5.01-7.42-10.69-14.38-16.1-21.53-2.73-3.62-3.51-7.8-3.69-12.21-.08-1.9.42-3.19,2.02-4.3,4.95-3.44,7.71-8.31,8.84-14.16.17-.91.19-1.92.62-2.7,4.01-7.25,2.4-14.14-1.63-20.63-2.69-4.32-5.97-8.27-9.02-12.36-3.06-4.1-6.12-8.19-6.66-13.54-.05-.49-.67-.92-1.82-2.41-.57,1.15-1.02,1.94-1.37,2.77-3,7.31-5.43,14.77-6.79,22.59-1.7,9.75-.31,18.78,5.38,27.01,1.4,2.03,2.59,4.27,4.26,6.06,4.07,4.37,2.82,9.54,2.69,14.68-4.54-4.79-8.6-9.81-12.75-14.74-1.68-2-3.38-4.09-5.43-5.67-2.91-2.23-5.09-4.89-6.8-8.09-1.46-2.72-3.03-5.4-4.74-7.97-1.39-2.09-1.93-4-.86-6.49.68-1.56.89-3.53.67-5.23-.52-3.94-1.49-7.81-2.17-11.73-.81-4.62-.7-9.46-3.67-13.72v18.25c-3.9-3.1-4.92-6.9-5.97-10.47-1.56-5.27-1.97-10.69.83-15.8,2.82-5.16,10.01-6.55,14.29-2.59,1.52,1.4,2.86,3.4,3.39,5.37,1.04,3.85,1.75,7.85,2.03,11.82.16,2.18-.52,4.56-1.36,6.63-1.59,3.89-3.57,7.63-5.39,11.43,2.18-.74,4.23-1.79,5.2-3.47,3.17-5.51,5.91-11.27,4.62-17.95-.62-3.18-1.1-6.44-2.18-9.48-.8-2.26-2.21-4.44-3.83-6.23-2.2-2.44-4.99-4.26-8.56-3.88-7.32.78-11.58,4.93-12.32,12.24-.77,7.62.6,14.74,5.24,21.1,2.5,3.45,4.46,7.24,5.04,11.88-.76-.36-1.25-.47-1.57-.76-5.23-4.86-11.48-7.63-18.32-9.53-2.39-.66-4.45-2.67-6.51-4.26-.57-.44-.86-1.63-.76-2.42.49-3.81,1.07-7.61,1.78-11.38.91-4.86,2.1-9.66,2.93-14.53.33-1.93.44-4.1-.11-5.93-1.14-3.84-2.48-7.69-4.32-11.23-1.55-2.97-3.61-5.83-6.01-8.15-3.94-3.81-9.99-2.91-12.74,1.83-2.81,4.85-3.75,10.08-1.58,15.57,3.32,8.48,8.36,15.75,15.09,21.86,0,0,0,0,0-.01-.64-1.36-1.03-2.94-1.96-4.05-4.5-5.38-8.07-11.22-10.31-17.93-1.57-4.69-.44-8.87,1.74-12.87,1.68-3.08,5.06-3.66,7.35-1.05,2.52,2.86,4.52,6.21,6.47,9.51,1.17,1.97,1.97,4.22,2.6,6.44.57,2.02,1.07,4.21.92,6.27-.24,3.17-1.08,6.29-1.83,10.27-2.68-4.28-4.54-7.91-5.21-12.08-.37-2.3-1-4.48-3.27-5.91-.18,2.45,1.59,11.36,2.77,14.34.91,2.28,1.9,4.57.74,7.06,0,0,0,.02.01.02,0,0,0,0-.01-.01,0,.02,0,.04-.02.06,2.43,2.87,2.52,5.58.31,9.27-10.03-6.26-20.06-12.52-30.68-19.15.75-3.96.81-8.64,2.56-12.57,2.92-6.57,2.54-12.91.9-19.47-1.77-7.04-6.88-10.88-13.38-12.94-7.38-2.34-13.59,2.9-12.78,10.61.57,5.42,1.57,10.71,5.9,14.72,1.46,1.35,2.39,3.24,3.76,4.7,2.31,2.45,4.64,4.91,7.23,7.05,2.61,2.16,2.88,2.59,1.37,6.64-5.02-1.9-10.09-3.73-15.08-5.73-10.17-4.09-20.47-7.76-31.3-9.76-1.9-.35-4.31-.17-5.15-2.45-1.13-3.05-3.7-5.59-2.37-9.51,1.34-3.94,1.96-8.27.23-12.28-2.84-6.61-7.56-11.66-14.04-14.87-4.04-2-9.21-1.21-11.62,1.52-3.15,3.58-3.49,7.98-.82,12.41.87,1.44,1.83,2.95,3.09,4.04,4.55,3.94,9.24,7.71,13.89,11.54,2.54,2.09,5.59,3.73,7.13,7.68-2.02-.34-3.51-.51-4.96-.85-7.82-1.82-15.58-3.87-23.71-4.04-3.53-.07-7.08-.79-10.52-1.6-1.68-.39-3.44-1.37-4.66-2.6-4.13-4.15-6.34-9.14-5.34-15.13.75-4.41-.13-8.43-3.15-11.65-3.15-3.37-6.43-6.75-10.15-9.46-5.56-4.05-11.04-2.56-15.5,3.55-2.67,3.66-1.28,8.37,3.62,12.32.24.2.49.38.75.56,6.21,4.31,12.35,8.75,18.68,12.88,3.16,2.07,4.7,4.93,5.89,8.06-10.48.39-20.66.65-30.83,1.22-3.3.19-5.15-1.13-7.44-3.37-3.18-3.11-4.83-6.57-5.53-10.75-.15-.9-.5-1.77-.77-2.65-2.32-7.46-7.45-12.45-14.42-15.37-2.43-1.01-5.5-.97-8.2-.65-1.58.19-3.51,1.54-4.35,2.93-2.53,4.17-1.13,10.95,2.75,13.93,4.64,3.56,9.33,7.1,15.39,8.13,2.41.41,4.78,1.22,7.1,2.03,2.59.92,4.23,2.84,5.36,5.8-2.7.39-5.11.89-7.53,1.05-6.02.4-12.1.22-18.03,1.07-5,.72-10.27-.13-15.04,2.32-.69.36-2.06.34-2.61-.11-5-4.04-10.77-7.57-11.41-14.93-.78-9.09-14.54-14.07-20.6-12.09-1.17.38-2.35.84-3.41,1.46-2.38,1.39-3.21,3.76-3.2,6.31.01,2.11,1.07,3.83,3.17,4.74,7.67,3.31,15.25,6.86,23.04,9.84,3.12,1.19,5.29,2.9,7.07,5.86-.89.35-1.56.7-2.27.88-6.32,1.48-12.73,2.61-18.93,4.49-6.34,1.92-12.38,1.61-18.7,0-4.61-1.18-9.45-1.71-14.21-1.94-6.34-.3-10.95,3.08-12.46,8.94-.73,2.81-.82,5.8-.94,8.72-.09,2.36,1.18,3.93,3.31,5.12,5.9,3.27,11.47,2.14,16.61-1.37,4.46-3.03,8.69-6.45,12.76-10,3.24-2.82,6.64-4.83,10.97-5.5,5.33-.82,10.59-2.08,15.89-3.12.77-.15,1.58-.09,2.55-.13-1.67,4.82-4.75,7.17-9.43,7.47-1.85.12-3.7.29-5.53.6-1.81.31-3.68.63-5.37,1.31-5.94,2.38-7.52,6.99-5.21,14.75,1.01,3.39,6.2,5.39,11.11,4.12,1.47-.38,2.93-1.04,4.19-1.89,6.75-4.56,10.91-10.77,11.77-19.02.48-4.63,3.48-7.71,7.3-9.41,3.3-1.48,7.13-2.03,10.78-2.39,7.98-.78,16.01-1.19,24.02-1.71.5-.03,1.03.27,1.66.46-1.05,2.67-2.6,4.4-5.02,4.86-3.3.63-6.71,1.43-10.02,1.27-12.4-.61-14.51,8.84-12.72,17.85.13.67.74,1.43,1.34,1.8,2.8,1.74,5.75,3.02,9.19,2.36,8.09-1.55,13.76-6.01,16.64-13.82,1.28-3.48,2.28-7.08,3.79-10.45,1.08-2.43,2.41-5.08,5.7-5.23,10.04-.46,20.08-.89,30.12-1.27.79-.03,1.59.34,2.46.55-1.08,2.49-2.64,3.58-5.02,4.06-5.6,1.13-11.1,2.78-16.72,3.84-3.87.73-6.93,2.72-9.66,5.2-5.97,5.42-4.64,13.51,2.41,17.23,5.05,2.66,10.16,3.22,15.69,2.14,4.33-.85,7.56-2.97,10.4-6.35,5.14-6.12,6.01-13.33,6.2-20.82.1-4.02,1.52-5.6,5.52-5.3,4.93.37,9.83,1.05,14.73,1.7,7.8,1.04,15.6,2.14,23.39,3.3,1.1.16,2.13.8,3.2,1.22.03.34.05.68.08,1.02-1.31.43-2.67,1.32-3.93,1.21-5.69-.52-11.35-1.44-17.05-1.97-3.2-.3-6.48-.44-9.66-.06-3.51.41-6.3,2.42-8.14,5.56-2.92,5-3.01,10.57.39,14.33,3.98,4.41,9.49,6.73,15.07,4.91,8.25-2.7,15.87-6.95,20.34-15.07,1.37-2.47,3.45-4.24,5.32-6.26,2.23-2.43,4.51-3.07,7.37-2.34,9.54,2.44,19.1,4.83,28.57,7.55,4.58,1.31,8.98,3.29,13.43,5.03.92.36,1.72,1.02,2.68,1.6-2.16,1.98-4.25,1.19-6.39.82-5.01-.85-10.04-1.72-15.09-2.3-4.69-.54-9.27.31-13.63,2.11-1.39.57-2.94,1.35-3.79,2.49-3.21,4.26-4.88,9.11-3.03,14.35,1.34,3.81,7.17,6.46,12.88,5.13,8.65-2.02,17.68-3.89,22.9-12.44.48-.79,1.01-1.56,1.57-2.3,2.93-3.87,10.09-5.61,14.57-3.82,7.39,2.95,13.93,7.35,20.53,11.67,1.77,1.16,3.45,2.46,5.95,4.25-2.49,1.02-4.88,2.84-5.92,2.26-2.59-1.45-5.02-.45-7.47-.7-6.15-.64-12.29-1.45-18.46-1.79-8.51-.48-13.86,1.62-17.06,10.86-.72,2.06-.61,3.86.48,5.75,3.31,5.75,11.55,8.28,18.39,5.05,6.53-3.08,13.45-5.63,18.45-11.29.79-.89,1.97-1.46,3.04-2.05,1.73-.94,3.31-.69,4.45,1.01,3.27,4.83,6.5,9.68,10.24,15.26-2.83-.42-4.65-.59-6.45-.95-5.68-1.14-11.32-1.09-17.06-.16-8.42,1.36-12.38,11.91-6.99,18.28,6.16,7.27,13.55,9.82,22.71,8.14,7.77-1.42,14.48-5.26,21.08-9.31,1.52-.94,2.87-1.54,4.72-1.24,5.21.85,10.44,1.1,15.7.15,2.75-.5,5.15.35,7.21,2.34,2,1.94,4.2,3.66,6.19,5.6,2.86,2.79,5.56,5.74,8.42,8.53,1.31,1.27,2.99,2.18,4.22,3.52,3.32,3.66,6.54,7.42,9.69,11.23,2.54,3.08,4.96,6.26,7.18,10.67-16.4-10.2-32.98-16.99-51.55-18.16-.5-1.27-.99-2.39-1.37-3.56-2.02-6.13-6.96-9.28-12.34-11.84-2.83-1.35-5.72-.72-8.48.71-4.77,2.47-5.23,3.99-2.47,8.64.12.22.01.58.01.13-1.59,2.45-3.63,4.27-3.82,6.26-.17,1.91,1.6,3.99,2.63,6.26-.01.02-.27.4-.47.81-2.7,5.75.2,10.68,6.51,11.1,4.05.27,7.92-.56,10.7-3.51,3.35-3.55,7.41-6.6,9.15-11.37,16.14.27,44.49,11.05,50.65,18.98-4.12,1.07-8.32,2.41-12.63,3.19-2.32.42-4.85.04-7.23-.3-4.72-.66-9.39-2.05-14.12-2.22-7.44-.26-13.6,3.57-19.59,7.55-4.37,2.91-8.83,5.68-13.28,8.48-.75.48-1.61.8-2.91,1.44,1.73,1.06,2.28,1.69,2.72,1.62,5.35-.78,9.96,1.35,14.69,3.34,6.29,2.65,12.97,3.69,19.49,1.45,7.67-2.63,14.69-6.56,19.35-13.68.83-1.27,2.29-2.14,3.11-3.42,4.11-6.45,16.71-4.52,21.23,1.38,5.46,7.13,10.08,14.81,14.28,22.71,6.3,11.88,12.71,23.73,17.3,36.41,2.13,5.89,3.95,11.88,6.08,18.29-2.43-.31-4.23-.68-6.03-.73-3.18-.07-5.71-1.29-7.52-3.87-1.86-2.65-3.45-5.5-5.42-8.05-3.78-4.92-5.28-10.38-4.49-16.5.1-.77.12-1.54.16-2.32.37-8.33-3.37-14.87-9.88-19.38-7.22-5-15.04-9.12-22.62-13.59-.34-.2-.88-.07-1.64-.12-.12.9-.48,1.81-.29,2.57,1.65,6.27,3.22,12.56,5.17,18.74,1.72,5.45,3.84,10.79,7.81,15.13,4.26,4.66,9.68,7.11,15.82,7.97,1.66.23,2.98.63,3.85,2.11,3.09,5.26,6.19,10.51,9.42,16.01-12.69-1.7-24.82-4.4-37.02-7.56.17-1.17.25-1.92.38-2.66,1.04-5.93-.86-10.62-5.84-14.07-1.4-.97-2.69-2.08-4.03-3.13-1.94-1.54-3.99-2.45-6.37-.95-2.28,1.44-2.85,3.47-1.78,5.67-2.01.93-4.46,1.31-5.38,2.7-1.01,1.52-.61,3.98-.83,6.17-.77.27-1.81.58-2.79,1.01-2.02.9-3.2,2.34-2.98,4.71.35,3.64,1.02,4.94,3.94,5.41,5.8.92,11.95,2.14,17.39-.19,5.14-2.21,9.63-2.18,14.48-.1.42.18.9.24,1.35.33,14.41,2.8,28.8,5.7,43.24,8.31,3.04.55,4.42,1.9,5.5,4.65,3.02,7.67,4.24,15.82,6.6,23.62,2.83,9.33,3.43,18.81,4.28,28.33.36,4.01.53,8.02.68,12.04.05,1.17-.24,2.34-.39,3.6-6.1-2.09-9.84-6.02-11.92-11.73-1.06-2.9-2.38-5.71-3.77-8.48-1.58-3.15-2.49-6.26-1.11-9.75.37-.96.33-2.14.26-3.2-.48-8.03-4.02-14.92-8.79-21.04-6.09-7.83-15.07-11.61-23.9-15.4-.46-.2-1.12.1-1.55.14-.23.55-.43.82-.44,1.1-.04.46-.04.95.09,1.38,4.05,13.25,9.29,25.94,18.15,36.81,2.22,2.73,5.1,4.6,8.77,4.53,2.24-.04,3.29,1.01,4.16,2.91,2.07,4.49,4.35,8.89,6.52,13.33.33.68.55,1.41,1.05,2.7-1.98-1.19-3.21-2.23-4.63-2.73-4.22-1.48-8.54-2.7-12.78-4.14-1.22-.42-2.6-1.02-3.39-1.97-2.28-2.73-4.45-5.57-6.36-8.56-4.92-7.7-11.65-12.02-20.93-12.68-6.45-.45-12.93-1.25-19.05-3.7-.6-.24-1.38-.03-2.4-.03.35,1.19.47,2.09.86,2.87,1.8,3.58,3.69,7.12,5.53,10.68,1.84,3.57,3.54,7.22,5.53,10.7,2.28,3.98,5.83,6.03,10.4,7,7.71,1.64,15.07.07,22.49-1.5,1.04-.22,2.22-.88,3.1-.61,6.18,1.93,12.38,3.85,18.41,6.18,2.98,1.16,5.5,3.48,8.45,4.74,5.98,2.55,9.27,6.48,8.06,13.28-.06.3-.18.58-.21.7-2.07,1.55-4.01,3.02-6.24,4.68-3.33-1.6-7.22-2.44-10.44-.16-2.9,2.05-5.06,5.13-7.82,8.06-3.61-1.08-7.62-.3-11.47,1.64-5.15,2.6-6.4,5.7-3.87,10.99,3.99,8.33,10.51,13.95,19.16,17.25,2.23.86,4.61,2.05,6.2,3.76,2.59,2.78,4.41,6.25,6.87,9.16,1.23,1.46,1.58,2.68,1.39,4.54-.54,5.38-.74,10.79-1.18,16.18-.15,1.84-.63,3.64-.96,5.47-1.23-2.51-1.56-4.93-2.17-7.3-2.32-8.91-7.93-15.54-14.74-21.43-6.07-5.24-13.67-8.53-18.83-14.92-.32-.39-1.09-.4-2.14-.76-1.38,7.01-3.81,13.57-3.7,20.59.04,2.42.48,4.98,1.35,7.24,2.51,6.51,5.69,12.69,10.01,18.24,2.75,3.54,5.66,6.99,8.08,10.76,3.58,5.59,6.92,11.35,10.09,17.18,1.82,3.36,2.09,6.9.25,10.61-1.78,3.59-3.02,7.44-4.56,11.15-.61,1.46-1.38,2.85-2.47,5.07-.39-5.26-.36-9.46-1.09-13.51-1.38-7.67-4.18-14.86-8.26-21.53-1.06-1.72-1.84-3.28-.92-5.59.96-2.42-1.55-6.87-4.09-7.49-1.45-.36-3.47-.04-4.7.77-1.03.68-1.96,2.65-1.73,3.82.54,2.77,2.07,5.72,4.95,6.21,3.8.66,4.8,3.38,6.14,6.08,3.36,6.73,4.5,14.06,5.88,21.35,1.58,8.4.28,16.41-3.44,23.9-3.43,6.92-7.54,13.5-11.39,20.21-.48.82-1.19,1.5-1.78,2.24-.36-1.15-.31-2.07-.03-2.91,2.8-8.28,4.07-16.8,4.21-25.53.01-1.16.47-2.38.98-3.45,1.36-2.83,1.23-5.72.36-8.57-.62-2.01-2.33-2.92-4.36-2.75-1.86.16-2.4,1.68-2.64,3.32-.42,2.84-.45,5.49,1.8,7.8.75.76,1.19,2.2,1.13,3.3-.82,15.45-1.85,30.87-11.82,43.86-.19.24-.29.55-.44.82-6,10.6-13.79,19.76-22.71,27.98-.71.66-1.56,1.16-3.03,2.22.4-3.43.59-6.04,1.04-8.61,1.14-6.55,2.36-13.07,3.6-19.6.4-2.11.76-4.28,1.53-6.26,2.78-7.12,6.95-13.37,11.95-19.17,6.18-7.16,9.46-15.75,9.05-25.17-.56-12.87-3.05-25.26-13.37-34.49-.8-.71-1.35-1.69-2.12-2.45-.39-.39-1-.55-1.41-.76-.46.33-.84.46-.92.69-.29.87-.53,1.76-.69,2.66-1.34,7.48-3.18,14.77-6.61,21.65-1.64,3.28-2.5,6.96-3.54,10.52-.71,2.47-1.1,5.04-1.75,8.11-.81-.93-1.3-1.46-1.76-2.02-4.53-5.51-9.38-10.67-15.22-14.86-3.01-2.16-5.88-4.54-8.7-6.96-1.38-1.19-2.56-2.65-3.71-4.09-.54-.67-.78-1.59-1.15-2.39-.47.21-.93.42-1.39.63-.71,1.61-1.65,3.16-2.1,4.84-1.82,6.94-2.24,14.04-1.95,21.18.54,13.19,7.05,23.15,17.22,30.93,4.42,3.38,9.17,6.31,14.64,7.87.99.28,2.31,1.41,2.44,2.3,1.07,7.33,2.43,14.64,1.71,22.13-.47,4.92-.91,9.85-1.03,14.79-.06,2.56-.95,4.27-2.82,5.96-7.77,7.08-15.37,14.34-23.09,21.48-3.02,2.79-6.03,5.67-10.46,6.91-4.2-7.35-6.42-15.18-7.96-23.23-.39-2.08.34-3.82,2.05-5.32,2.53-2.2,3.07-5.31,2.88-8.49-.22-3.46-2.05-4.85-5.28-3.71-1.47.52-2.96,1.76-3.8,3.09-2.65,4.2-1.82,8.06,2.06,11.73.7,10.06,3.89,19.34,7.84,28.4-9.22,7.81-17.81,15.98-28.9,21.04-.88-4.98.71-9.18,2.14-13.43,1.61-4.83,3.43-9.62,4.64-14.56,1.3-5.31,1.07-10.78-.29-16.1-1.09-4.25-2.79-4.94-6.79-2.99-12.14,5.92-21.57,14.25-27.89,26.71-4.13,8.15,1.18,22.92,9.63,25.32,2,.57,3.78,1.88,6.63,3.35-18.55,10.24-35.4,21.57-55.59,27,1.13-3.95,2.52-7.41,3.09-10.99,1.68-10.67,6.06-20.03,12.67-28.12,1.43-.14,2.87.15,3.74-.43,3.81-2.52,6.65-6.02,8.79-10.01.9-1.68.01-3.34-1.3-4.59-1.22-1.17-2.56-.77-3.83.01-4.24,2.6-7.71,5.97-8.41,11.06-.28,2.04-1.06,3.4-2.24,4.84-6.11,7.44-9.66,16.07-12.09,25.3-1.13,4.31-3.01,8.42-4.4,12.66-.6,1.84-1.92,2.56-3.51,3.35-8.41,4.13-17.48,6.09-26.45,8.41-.74.19-1.6-.04-3.28-.12,2.47-3.03,4.32-5.46,6.33-7.76,7.2-8.25,13.01-17.22,15.91-27.98,1.29-4.78,1.03-9.39.89-13.95-2.46-.95-3.88.11-5.46,1.25-9.48,6.92-18.47,14.56-28.98,19.99-1.22.63-2.3,1.56-3.38,2.44-6.89,5.65-12.59,12.35-17.15,19.98-1.17,1.95-2.06,4.21-2.45,6.43-.63,3.57.47,6.87,4.46,8.07,1.33.4,3,.66,3.71,2.54-4.99,3.34-9.87,6.58-14.73,9.87-4.97,3.37-9.9,6.8-14.79,10.17-9.85-6.7-19.77-13.44-30.2-20.54,1.85-.88,3.15-1.66,4.55-2.15,3.11-1.07,4.49-3.32,4.16-6.42-.23-2.26-.51-4.77-1.64-6.64-6.57-10.83-14.34-20.56-26.04-26.37-1.52-.75-2.98-1.66-4.35-2.66-6.74-4.93-13.47-9.87-20.12-14.92-1.61-1.22-3.09-1.95-5.02-1.14-.14.34-.31.61-.36.91-.08.46-.08.92-.11,1.38-.68,9.83,2.61,18.66,7.58,26.78,3.37,5.51,7.77,10.39,11.71,15.55,1.28,1.67,2.53,3.36,4.28,5.69-2.12-.28-3.35-.31-4.51-.62-4.92-1.32-9.89-2.51-14.71-4.16-4.51-1.54-8.83-3.59-13.25-5.42-1.73-4.61-3.84-9.12-5.11-13.86-2.65-9.82-6.3-19.07-13-26.9-.66-.77-1.41-1.79-1.45-2.73-.27-5.76-3.83-9.2-8.2-12.13-1.53-1.03-3.11-1.54-4.53.16-1.3,1.55-1.84,3.27-.55,5.08,1.25,1.76,2.41,3.67,3.95,5.13,2.11,1.98,3.53,5.43,7.52,4.23.33-.1,1.04.6,1.36,1.08,2.22,3.34,4.58,6.61,6.53,10.12,4.78,8.62,5.05,18.61,8.92,28.74-9.49-3.76-18.6-6.15-26.4-10.75-12.27-7.23-9.29-3.03-14.52-16.67-.23-.58-.53-1.12-.76-1.7-2.28-5.75-3.9-11.69-4.91-17.7,4.69-3.29,5.32-4.75,6.9-11.14,1.97-7.94,3.71-16.03,6.69-23.6,4.34-11.05,7.19-22.31,8.1-34.1.36-4.66-1.55-5.85-5.92-3.74-3.2,1.55-6.5,3.03-9.38,5.05-5.3,3.73-10.51,7.65-13.53,13.73-1.11,2.24-2.58,4.31-3.88,6.46-.35-.02-.7-.04-1.05-.06-1.87-15.07-4.36-29.91-15.59-42.5-.97,6.11-1.67,11.46-2.69,16.74-1.95,10.11-2.17,20.17-.9,30.45,1.59,12.84,6.11,24.26,14.45,34.05,3.75,4.4,7.39,9.2,13.59,10.61,1.1,4.09,2.25,8.1,3.26,12.14,1,4.03,3.66,7.56,4.04,12.13-7.49-3.12-14.06-6.69-20.27-11.15-10.53-7.56-22.01-13.8-31.39-22.94-.87-.84-1.77-1.64-2.61-2.42,3.93-8.9,6.92-17.78,7.75-27.28.06-.77.79-1.57,1.37-2.21,3.07-3.45,2.77-9.35-.65-12.42-1.65-1.48-3.68-1.92-5.61-1.21-1.99.73-2.31,2.8-2.2,4.71.15,2.83.76,5.62,3,7.55,2.35,2.03,2.63,4.45,1.82,7.14-1.59,5.32-3.18,10.66-4.98,15.92-.67,1.96-1.94,3.73-3.15,5.98-2.6-1.76-4.91-3.03-6.88-4.71-5.07-4.3-10.06-8.7-14.96-13.2-3.22-2.97-6.22-6.18-9.64-9.61,1.38-.56,2.05-.96,2.77-1.11,6.25-1.31,11.56-4.37,15.91-8.97,6.37-6.73,8.36-14.58,5.59-23.56-1.89-6.15-5.75-10.85-10.52-14.98-5.48-4.75-11.47-8.96-15.9-14.86-.46-.6-1.48-.78-2.66-1.36-.49,1.85-.91,3.3-1.25,4.76-1.2,5.27-2.38,10.54-3.54,15.81-1.31,5.91-2.13,11.86-1.53,17.95.54,5.47.94,10.96,1.51,17.49-4.53-4.62-8.55-8.6-12.38-12.75-.72-.79-.96-2.27-.97-3.43-.08-7.74-.5-15.52.17-23.2.42-4.75,1.62-9.73,5.19-13.55.73-.77,1.43-1.69,1.8-2.67,1.38-3.58,4.15-5.64,7.41-7.3,4.19-2.13,8.03-4.89,10.53-8.89,6.87-10.99,12.11-22.54,12-35.95-.13-15.46-.79-30.97,2.36-46.28.16-.78-.31-1.68-.59-3-8.61,2.66-14.54,8.4-20.31,14.4-5.9,6.12-9.73,13.57-13.41,21.34-1.22-3.32-2.08-6.3-3.39-9.06-1.8-3.76-3.9-7.37-5.97-10.99-.49-.86-1.62-2.2-2.06-2.06-.99.31-2.13,1.25-2.53,2.22-2.52,6.15-4.7,12.45-7.31,18.56-3.33,7.84-4.86,15.86-4.34,24.41.46,7.66,2.22,14.66,7.47,20.47,1.87,2.06,3.65,4.25,5.78,6.01,2.49,2.08,4.26,4.46,4.74,7.66.36,2.41.82,4.85.72,7.27-.16,4.16-.89,8.3-1.08,12.47-.33,7.27-.41,14.54-.64,21.81-.03.95-.33,1.9-.7,3.87-2.23-3.45-3.87-6.04-5.56-8.6-1.44-2.19-2.67-4.59-4.43-6.48-2.32-2.5-3.54-5.4-4.32-8.58-.74-3-1.2-6.09-2.21-8.99-2.53-7.3-2.64-14.89-3.22-22.44-.15-1.89.05-3.56,1.65-5.04,2.17-2,2.03-4.71,1.45-7.38-.34-1.57-.89-3.16-2.82-3.18-1.76-.02-3.64.58-4.02,2.5-.46,2.36-1.16,5.17-.32,7.19,1.36,3.28,1.61,6.54,1.75,9.9.27,6.54,1.41,12.9,3.48,19.11.45,1.36.63,2.82.94,4.23-.38.23-.77.46-1.15.69-.13-.45-.18-.94-.41-1.34-4.19-7.41-8.86-14.58-12.42-22.28-2.14-4.64-3.64-10.11-3.51-15.16.2-7.32,1.84-14.67,3.46-21.88.83-3.69,2.82-7.16,4.55-10.59.53-1.05,1.87-2.08,3.02-2.34,3.09-.71,4.69-2.81,5.92-5.4,1.18-2.49.56-4.76-1.96-5.68-1.42-.52-3.54-.64-4.75.07-2.34,1.35-4.28,3.98-3.39,6.57,1.05,3.09-.32,5.03-1.57,7.26-5.41,9.61-8.75,19.77-8.5,30.93.01.5-.18.99-.27,1.5-2.67-4.43-4.19-9.12-6.44-13.43-2.53-4.82-2.09-9.22.55-13.6,3.83-6.34,7.54-12.79,11.81-18.84,5.26-7.45,11.27-14.42,14.47-23.12,1.16-3.15,2.32-6.5,2.44-9.8.25-6.98-2.44-13.49-3.85-21.29-1.83,1.58-2.94,2.5-4,3.47-1.59,1.46-3.03,3.13-4.74,4.41-3.96,2.95-8.19,5.54-12.06,8.61-7.32,5.81-12.85,12.95-15.03,22.26-.54,2.3-.73,4.68-1.08,7.03-1.02-1.85-1.52-3.76-1.68-5.69-.29-3.39-.3-6.8-.57-10.19-.22-2.77-1.45-5.73-.79-8.22.69-2.62,3.1-4.79,4.76-7.15.09-.13.18-.26.24-.39,2-4.32,5.4-6.74,9.89-8.35,8.83-3.17,15.34-9.18,19.15-17.82,1.97-4.49.83-7.28-3.36-9.71-4.17-2.41-8.63-3.07-12.95-2.08-2.08-2.92-3.92-5.53-5.93-8.37.96-.7,1.9-1.46,2.91-2.1,7.02-4.51,13.99-9.12,21.12-13.47,6.13-3.74,11.12-8.41,13.72-15.21,2.37-6.21,4.55-12.48,6.78-18.74.55-1.54.98-3.14,1.45-4.66-1.99-1.19-2.74.35-3.81,1.09-3.17,2.18-6.21,4.65-9.6,6.41-13.28,6.93-24.69,15.99-32.97,28.55-2.95,4.48-5.62,9.31-7.39,14.35-.96,2.72-1.98,3.84-4.23,4.09-2.29-1.77-4.34-3.34-6.36-4.89.28-7.17.99-14.29.72-21.36-.3-8.07,3.7-14.13,8.74-19.25,9.48-9.61,20.88-15.51,34.88-16.07,10.38-.42,20.61-2.28,29.7-7.98,5.1-3.2,10.29-6.26,15.37-9.49,2.73-1.73,5.32-3.68,7.97-5.54.67-.47,1.31-.97,2.14-1.6-1.84-1.68-3.29-.4-4.6-.05-5.41,1.43-10.8,2.48-16.47,2.07-15.35-1.12-28.11,4.37-38.79,15.3-2.02,2.07-4.61,3.63-7.13,5.11-4.78,2.81-9.69,5.4-14.57,8.04-.17.09-.53-.15-1.27-.4,1.01-1.13,1.79-2.22,2.79-3.09,3.61-3.15,7.31-6.21,10.94-9.34,8.95-7.73,15.13-17.5,20.38-27.92.94-1.87,2.35-3.79,2-6.46-2.41,1.2-4.4,2.42-6.54,3.22-7.55,2.81-13.57,7.95-19.81,12.75-.96.74-1.81,1.72-2.44,2.76-3.98,6.57-9.16,12.52-10.7,20.39-.2,1.03-.93,1.94-1.34,2.94-1.64,4-3.3,7.98-4.85,12.01-.92,2.43-1.72,4.87-5.02,7.15,1.12-5.51,1.78-10.06,3-14.45,1.75-6.25,3.81-12.42,5.93-18.55,4.53-13.15,9.22-26.26,13.77-39.41.72-2.08,1.9-3.26,4.04-3.98,6.86-2.29,12.52.18,18.18,3.76,4.01,2.53,8.18,5.17,12.66,6.5,8.38,2.48,17.06,2.49,25.74,1.02,7.15-1.21,14.3-2.73,21.66-2.01,1.01.1,2.07-.44,3.12-.69,0-.34,0-.69,0-1.04-.9-.39-1.77-.9-2.71-1.14-6.43-1.66-12.76-3.48-18.77-6.5-5.25-2.63-10.91-4.62-16.88-4.6-7.89.03-15.77.65-23.42,2.87-2.97.86-5.61.3-8.65-1.47,13.53-4.47,27.42-6.17,39.47-13.32,1.16.65,2.18,1.34,3.3,1.82,4.87,2.09,11.2.55,13.86-3.28,1.21-1.73,1.64-3.86-.19-4.93-3.12-1.84-3.08-5.38-4.96-7.85-.99-1.3-1.16-3.25-3.26-3.41-2.27-.18-3.98.96-4.82,2.95-1.43,3.38-2.83,6.81-3.74,10.35-.46,1.75-.65,3.28-2.51,3.98-5.19,1.97-10.27,4.28-15.58,5.84-7.55,2.23-15.26,3.92-22.9,5.85-3.24.82-6.49,1.64-10.58,2.67.88-2.26,1.32-3.85,2.09-5.27,4.26-7.89,9.1-15.52,12.77-23.68,3.24-7.18,8.38-9.18,15.66-9.46,11.89-.46,23.67-1.98,35.26-5.14,4.79-1.3,10.14-1.01,15.2-.77,8.09.39,16.15.16,23.97-1.74,9.9-2.42,19.58-5.67,29.77-6.84.54-.06,1.04-.51,2.15-1.11-1.09-.86-1.75-1.77-2.57-1.94-1.95-.43-3.97-.64-5.98-.73-4.49-.21-9.04.16-13.44-.51-16.38-2.45-31.13,2.97-45.9,8.75-4.73,1.84-9.63,3.29-14.53,4.59-2.97.79-6.1.99-9.17,1.41-.94.13-1.9.14-3.57.25,3.32-3.75,6.46-6.35,10.5-7.75,7.74-2.68,15.47-5.36,23.21-8.05,5.17-1.79,9.98-4.25,14-8,5.71-5.33,11.33-10.76,17.52-16.66-1.66,0-2.44-.16-3.14.02-8.81,2.36-17.62,4.71-26.39,7.16-6.84,1.91-12.87,5.29-17.89,10.35-5.22,5.27-10.55,10.46-15.48,16-4.62,5.19-9.63,9-17.05,8.25-1.33-.14-2.71.23-4.59.42.68-1.16,1.02-1.99,1.58-2.65,5.24-6.3,10.62-12.49,15.75-18.88,6.69-8.34,15.37-13.81,25.08-17.76,12.92-5.26,26.2-9.42,39.85-12.32,4.03-.85,8.05-1.72,11.96-2.56,2.68,6.07,7.22,8.07,12.91,6.27,1.84-.59,3.12-1.53,3.03-3.53-.12-2.94,1.31-5.71.02-8.92-.72-1.8-.6-3.93-2.64-4.87-2.17-.99-4.22-.31-6.11,1-3.05,2.11-6.09,4.21-6.98,7.15-9.99,2.42-19.38,4.36-28.57,7.04-9.01,2.63-17.81,6.01-27.47,9.32,2.62-2.29,4.58-4.01,6.56-5.73,6.06-5.28,12.04-10.66,18.25-15.76,2.11-1.72,4.69-3.07,7.27-3.96,8.92-3.07,17.87-6.06,26.91-8.7,10.19-2.98,19.73-7.16,28.39-13.38,2.58-1.85,5.68-2.96,8.53-4.45,1.1-.57,2.9-.25,3.05-2.44-.94-.16-1.81-.36-2.69-.45-4.01-.4-8.01-.72-12.01-1.14-10.35-1.08-20.04,1.3-29.02,6.21-10.8,5.91-19.58,14.53-28.75,22.58-2.85,2.51-5.2,5.58-8.02,8.13-4.13,3.73-8.46,7.24-12.73,10.81-.84.7-1.79,1.27-3.36,2.37,1.78-3.65,3.04-6.47,4.52-9.17,1.09-1.99,2.23-4.04,3.74-5.7,4.36-4.8,8.9-9.45,13.41-14.12,3.77-3.9,7.48-7.76,8.8-13.34,1.89-7.95,3.16-16.09,6.47-23.66.29-.67-.26-1.71-.4-2.46-4.52,3.89-8.88,7.26-12.77,11.11-4.82,4.76-9.72,9.58-13.73,15-3.3,4.46-5.11,9.95-4.9,15.71.27,7.82-1.76,15.06-5.49,21.78-2.29,4.13-4.62,8.63-8.07,11.66-6.39,5.62-13.11,10.83-18.63,17.37-.55.65-1.22,1.19-1.84,1.77-.3-.11-.59-.23-.89-.35.65-3.88,1.25-7.77,1.97-11.62,1.09-5.77,2.3-11.51,3.41-17.27,1.66-8.65,3.24-17.31,4.96-25.95.35-1.75,1.21-3.4,1.78-4.94,6.45.47,10.05-1.03,12.74-4.8,1.73-2.44,1.4-4.97.68-7.55-.62-2.25-2.21-3.09-4.51-3.22-.94-.06-1.78-1.1-2.75-1.54-.95-.43-2.18-1.17-2.98-.88-2.08.75-3.88-.04-5.82-.36-4.21-.7-6.57,1.51-6.2,5.77.12,1.33.57,2.75,1.29,3.87,1.56,2.44,3.39,4.71,5.33,7.37-3.09,15.84-5.14,32.19-10.64,47.86-1.21-5.68-2.41-11.33-2.62-17-.37-10.01-3.71-19.1-8.02-27.85-3.15-6.39-6.39-12.69-8.08-19.66-.15-.64-.62-1.21-1.46-2.79-1.19,4.62-.95,8.19-.24,11.78,1.41,7.12,3.12,14.21,4.15,21.39,1.84,12.9,6.92,24.65,12.4,36.23,3.61,7.65,3,15.02-2.59,21.34-1.03,1.15-1.98,2.38-2.88,3.64-3.1,4.35-6.16,8.73-9.26,13.12-2.31-3.97-1.04-8.06-.99-12.01.08-5.24.44-10.48.96-15.7.82-8.13,2.52-16.26-2.19-23.93-1.1-1.79-1.37-4.09-2.03-6.15-1.33-4.15-2.68-8.31-4.03-12.46-.51,1.17-.74,2.28-.47,3.26,1.77,6.4,3.72,12.75,5.48,19.15.73,2.65,1.7,5.4,1.6,8.07-.3,7.55-1.09,15.09-1.72,22.63-.04.53-.39,1.03-.85,2.15-2.5-5.47-2.53-10.66-2.96-15.82-.42-5.08-1.43-10.11-1.96-15.18-.53-5.07-.8-10.16-1.18-15.25-.39,0-.77,0-1.16,0-.09,2.06-.41,4.14-.24,6.18,1.02,11.96,2.15,23.91,3.31,36.56-3.95-7.81-6.9-15.25-7.02-23.47-.12-7.43.25-14.83,2.85-21.94,1.1-3.03,2-6.13,3.06-9.18.48-1.4.6-2.6-1.27-3.79-.83,2.91-1.43,5.59-2.36,8.14-1.97,5.38-3.61,10.75-4.44,16.49-1.55,10.64.06,20.62,4.41,30.3,2.28,5.06,4.66,10.09,6.72,15.24,1.08,2.71,1.31,5.75,2.4,8.45,1.18,2.92.55,5.25-.88,7.85-3.72,6.78-7.61,13.5-10.71,20.57-6.77,15.44-12.72,31.21-17.49,47.4-.32,1.09-.88,2.12-1.66,3.96-2.28-5.86-4.23-10.84-6.14-15.84-.21-.54-.26-1.23-.14-1.8,1.86-8.81,4.77-17.35,9.1-25.14,5.44-9.77,6.97-19.95,6.26-30.84-.42-6.32-.15-12.67-.24-19-.07-4.79-.22-9.59-.33-14.38-.37-.08-.74-.15-1.1-.23-.66,1.32-1.39,2.6-1.95,3.95-2.9,6.99-5.89,13.95-8.57,21.02-1.69,4.47-3.48,9.03-4.18,13.7-.82,5.46-.65,11.1-.65,16.66,0,6.02.35,12.05.47,18.07.03,1.85-.19,3.71-.35,5.55-.15,1.69-.38,3.37-.57,5.05-4.52-10.07-7.86-20.12-7.5-31.04.08-2.6-.54-5.22-.85-7.83-.19-1.53-.68-3.08-.55-4.59.68-8.38-1.72-16.25-4.18-24.03-2.18-6.92-5.04-13.62-7.64-20.41-.41-1.06-1.02-2.04-1.58-3.13-.56.45-.95.61-.98.82-.89,6.57-2.12,13.13-2.5,19.74-.39,6.92-.33,13.91.21,20.82.77,9.5,5.3,17.48,10.71,25.22,3.67,5.26,6.59,11.19,8.95,17.17,3.53,8.9,6.14,18.15,9.39,27.17,2.17,6.04,2.68,11.95.5,18.1-.97,2.75-1.55,5.67-1.98,8.56-1.19,8.09-2.23,16.21-3.18,23.28-5.92-16.6-12.18-34.14-18.4-51.57,1.1-3.75,2.38-7.68,3.36-11.69.63-2.59-.45-4.93-2.26-6.75-1.55-1.55-3.3-1.68-5.5-.79-3,1.21-6.27,1.75-9.39,2.69-1.8.54-3.1,1.88-2.88,3.75.24,2.07.69,4.28,1.72,6.04,2.21,3.79,6.19,5.65,10.06,6.96,2.25.76,3.48,1.81,4.17,3.74,1.62,4.5,3.25,9.01,4.61,13.59,4.15,13.91,10.1,27.29,12.2,41.79.65,4.51,2.4,8.93,1.55,13.53-2.34.63-4.38,1.19-6.69,1.81-1.49-3.08-2.86-6.18-4.46-9.15-3.8-7.07-6.68-14.64-11.65-21.06-3.5-4.53-7.08-8.99-10.46-13.6-4.09-5.56-8.31-11.06-10.67-17.68-.05-.16-.52-.17-1.36-.41-.13,1.83-.45,3.58-.36,5.32.24,4.79.23,9.65,1.13,14.33.93,4.8,2.54,9.52,4.39,14.06,1.33,3.26,3.58,6.13,5.33,9.22,2.54,4.49,5.49,8.5,9.91,11.44,4.23,2.8,8.13,6.09,12.17,9.18.66.51,1.29,1.06,2.19,1.79-11.33,1.96-14.87,5.73-16.4,16.99-1.43,1-2.87,1.9-4.19,2.96-4.83,3.85-5.62,7.97-1.76,12.79,2.26,2.82,5.2,5.35,8.34,7.15,4.67,2.68,9.71,4.77,14.72,6.78,4.57,1.84,9.3,3.27,13.99,4.82,2.01.67,3.11,2.05,3.24,4.07.35,5.04.56,10.09.85,15.5-.94-.41-1.45-.48-1.72-.77-5.35-5.9-12.24-9.26-19.46-12.23-10.67-4.4-19.83-10.77-25.56-21.22-.52-.95-1.46-1.66-2.21-2.48-.27,2.47-.22,4.67.43,6.68,2.62,8.09,5.26,16.17,8.19,24.15,2.73,7.43,7.29,13.72,13.88,18.15,3.13,2.11,6.82,3.59,10.46,4.66,6.07,1.79,12.22.99,18.61-1.03,2,16.94,10.83,31.33,16.15,47.3-15.52-8.01-28.95-17.74-40.23-30.31.64-6.06-3.33-11.4-9.34-12.73-2.19-.48-3.46.17-4.36,2.26-2.1,4.91,3.46,12.87,9.32,12.41,2.79-.22,4.3.7,5.96,2.34,11.62,11.4,23.67,22.26,38.32,29.76,2.85,1.46,4.77,3.7,6.21,6.61,2.75,5.54,5.81,10.92,8.7,16.39.44.83.66,1.77,1.18,3.19-8.36-5.14-16.08-9.88-22.97-16.01-7.08-6.28-15.34-10.96-24.6-13.56-.95-.27-1.98-.27-2.97-.39,0,5.71-.1,11.07.03,16.42.11,4.62,1.31,9.1,4.7,12.29,5.94,5.59,12.76,10.27,21.12,10.65,9.07.42,18.22,1.67,27.31-.04,2.22-.42,3.51.28,4.43,2.26.96,2.1,1.84,4.31,3.21,6.14,3.8,5.07,7.83,9.96,11.77,14.94,2.35,2.97,4.66,5.96,7.26,9.29-1.22.18-1.67.35-2.09.29-8.25-1.27-16.51-2.46-24.73-3.92-2.8-.5-5.37-1.43-7.41-4.08-1.98-2.56-5.46-3.6-8.78-3.54-1.53.03-3.27.9-4.51,1.89-1.81,1.44-1.69,3.08-.14,4.81,2.84,3.17,7.57,3.99,11.34,1.82,1.54-.89,2.82-1.26,4.72-.67,10.17,3.16,20.38,6.34,31.09,7.04,2.84.18,4.78,1.21,6.73,3.25,7.38,7.7,14.98,15.18,22.48,22.77.13.13-.01.54-.04.98-3.85,1.01-7.71,1.5-11.73.54-3.75-.89-7.54-1.7-11.35-2.25-5.92-.86-11.82-2.98-17.88-1.19-4.28,1.27-8.53,1.19-12.86.49-.8-.13-1.66.14-3.29.31,1.96,3.1,3.45,5.74,5.2,8.18,4.49,6.24,9.75,11.69,17.14,14.43,4.47,1.65,9.15,2.78,13.68,4.28,4.67,1.54,8.59-.25,12.1-2.88,2.32-1.72,4.22-4.05,6.11-6.27,3.11-3.64,6.32-7.12,10.9-9.79,7.34,7.78,17.15,12.39,25.1,20.97-2.97.25-4.93.36-6.88.59-3.82.45-7.76.51-11.42,1.53-7.49,2.1-14.74,2.75-22.26.01-5.23-1.91-9.49,0-12.14,4.56,3.4,4.7,10.58,5.63,15.51,1.67,1.62-1.31,3.07-1.83,5-1.69,4.71.34,9.19-.67,13.69-1.98,3.39-.98,6.94-1.44,10.43-2.01,2.58-.42,5.18-.77,7.77-.88,1.31-.06,2.85.14,3.92.83,4.41,2.84,8.94,5.61,12.96,8.96,8.38,6.99,17.74,12.37,27.33,17.42,2.07,1.09,4.28,2.1,6.44,4.65-3.04.16-5.31.36-7.57.37-7.72.03-15.43-.06-23.15,0-6.24.05-11.74,2.49-16.92,5.74-1.94,1.21-3.85,2.56-4.48,5.51,1.54.76,3,1.52,4.5,2.21,5.6,2.6,11.22,5.16,16.82,7.76,6.45,3,12.9,6.06,20,7.22,5.59.92,11.24,1.22,15.87-2.9,3.22-2.87,6.22-5.93,7.98-10.09,1.05-2.47,2.93-4.58,4.39-6.78,12.15,4.82,23.74,9.42,35.69,14.16-.7.91-1.05,1.62-1.62,2.04-3.92,2.97-7.91,5.84-11.83,8.82-5.23,3.98-10.87,6.1-17.65,5.49-3.26-.29-6.74.6-9.96,1.5-2.5.7-3.65,3.32-3.16,5.53.51,2.31,2.47,2.63,4.29,2.85,4.36.53,8.42-.12,11.23-3.94,1.95-2.65,4.48-3.88,7.66-4.56,2.51-.54,5.08-1.62,7.19-3.07,5.57-3.83,12.03-6.42,16.61-11.71.65-.76,2.22-1.28,3.21-1.09,3.14.61,6.21,1.62,9.66,2.57-1.83,3.24-4.07,5.38-6.96,7.05-8.02,4.64-14.51,10.99-20,18.39-.3.39-.12,1.13-.15,1.41,6.8.62,13.36,1.43,19.94,1.76,6.89.33,13.27-1.49,18.31-6.44,3.17-3.11,5.95-6.62,8.9-9.96,1.1-1.25,2.16-2.54,3.17-3.73,12.55,3.59,22.2,10.69,29.83,20.4-7.95-.32-15.81-.63-23.66-.97-1.03-.04-2.41.11-3.02-.48-4.37-4.15-9.02-2.15-13.5-.65-3.24,1.08-3.73,4.62-1.3,7.03,2.61,2.58,14.63,1.79,16.91-1.12.09-.11.04-.36.14-.43.69-.48,1.41-1.37,2.09-1.34,8.32.27,16.75-.49,24.84,2.17,1.46.48,2.71,1.58,4.23,2.51-.94,1.44-1.54,2.32-2.1,3.22-1.63,2.63-3.47,5.16-4.79,7.94-1.78,3.74-.08,6.24,4.04,5.82,1.84-.18,3.72-1.3,5.29-2.41,1.81-1.3,3.29-3.07,4.42-4.15,2.06,1.78,3.97,3.6,6.04,5.21,2.35,1.82,6.04,1.95,7.79.47,1.56-1.31,1.44-3.48-.54-6.75-1.83-3.02-3.78-5.96-5.65-8.89q2.01-2.42,4.43-3.15c8.44-2.5,17.1-1.72,24.98-2.05,1.48,1.5,2.33,3.14,3.36,3.27,4.41.54,8.92,1.13,13.3.72,3.25-.3,4.34-5.37,1.99-7.35-2.94-2.49-10.8-2.89-14.06-.82-.96.62-2.12,1.23-3.22,1.28-8.14.38-16.3.62-24.2.89,6.09-9.06,19.13-18.01,29.96-20.18,1,1.29,2.2,2.67,3.23,4.18,8.53,12.63,19.22,17.97,33.57,15.1,3.12-.62,6.43-.36,9.64-.52,1.28-.06,2.56-.15,3.84-.22-.07-.89.02-1.28-.12-1.47-5.83-7.74-12.63-14.41-21.14-19.21-2.63-1.49-4.55-3.57-5.97-6.58,3.8-1.02,7.35-1.97,10.95-2.94.95.76,1.87,1.34,2.61,2.11,3.24,3.39,6.84,6.23,11.2,8.09,1.13.48,2.03,1.43,3.12,2,2.73,1.41,5.38,3.24,8.29,3.94,3.51.83,6.2,2.34,8.42,5.11,3.25,4.03,7.69,4.3,12.28,3.24,3.05-.7,4.01-2.95,2.31-5.6-.83-1.3-2.41-2.62-3.86-2.92-3.29-.69-6.74-1.19-10.07-.97-5.59.39-10.29-1.52-14.78-4.42-2.33-1.5-4.65-3.02-6.99-4.53-3.06-1.98-5.82-4.25-7.77-7.58,11.93-4.71,23.55-9.3,35.59-14.06,1.5,2.36,3.21,4.4,4.23,6.75,1.78,4.13,4.79,7.2,8,10.09,2.47,2.22,5.48,3.29,8.91,3.4,6.17.2,12.01-1.18,17.58-3.59,8.5-3.69,16.9-7.61,25.3-11.52,1.84-.86,5.08-.78,4.86-3.38-.15-1.68-2.27-3.67-4-4.62-3.62-2.01-7.43-4.25-11.41-4.9-6.35-1.03-12.9-1.13-19.35-1.07-5.35.05-10.67.47-16.1-.74,1.64-1.61,3.33-2.93,5.22-3.81,13.59-6.28,25.13-15.74,37.29-24.2,3.32-2.32,6.22-4.58,10.45-2.62.52.24,1.22.13,1.84.11,5.18-.14,10.08,1.1,15.04,2.47,3.67,1.01,7.58,1.3,11.41,1.55,2.22.14,3.98.46,5.88,1.93,3.88,3.02,8.4,2.9,12.75.91,3.02-1.38,3.12-3.57.45-5.66-3.2-2.51-6.84-2.97-10.53-1.56-6.84,2.62-13.65,2.3-20.44.19-4.5-1.39-9.01-2.06-13.72-1.88-1.69.07-3.41-.5-5.11-.78-.08-.36-.16-.71-.24-1.06,8.22-6.42,16.44-12.84,24.85-19.42,4.25,2.4,7.44,5.91,10.53,9.58,1.88,2.23,3.83,4.49,6.12,6.28,2.81,2.19,6.1,3.87,9.85,3.32,16.49-2.43,29.16-10.55,37.18-25.41.31-.57.19-1.37.3-2.25-.9-.05-1.52-.2-2.09-.09-4.64.89-9.15.54-13.79-.39-3.26-.65-6.8-.53-10.1-.04-7.18,1.05-14.3,2.5-21.41,3.91-3.28.65-6.12-.44-8.99-1.23,8.06-8.37,15.91-16.46,23.66-24.64,1.29-1.36,2.65-1.82,4.46-1.94,11.03-.76,21.55-3.89,32.03-7.13,1.81-.55,3.13-.5,4.75.45,3.89,2.3,8.33,1.61,11.36-1.54,1.84-1.91,1.94-3.46-.12-5.12-1.13-.91-2.72-1.74-4.11-1.75-3.66-.02-7.25,1.16-9.54,4-1.54,1.9-3.23,2.8-5.34,3.19-7.6,1.39-15.21,2.68-22.83,3.97-1.59.27-3.21.36-5.81.64,1.49-2.11,2.3-3.37,3.22-4.55,6.78-8.78,15.02-16.48,19.59-26.87.63-1.43,1.7-2.17,3.33-1.83,7.07,1.49,14.21.13,21.27.48,9.21.45,16.89-2.62,24.21-7.74,4.93-3.45,7.84-8.03,8.26-13.84.42-5.94.09-11.95.09-18.21-1.04.18-2.08.26-3.07.55-10.61,3.12-19.68,8.94-27.75,16.32-5.84,5.34-12.89,8.71-19.54,12.83,2.96-6.19,6.3-12.07,9.23-18.14,1.83-3.81,4.34-6.67,8.1-8.52,10.68-5.23,19.59-12.89,28.35-20.76,3.22-2.9,6.27-5.98,9.46-8.92,1.08-.99,1.99-2.04,3.96-1.78,4.15.54,9.81-3.5,11.12-7.45.84-2.51-.2-4.69-1.66-6.44-1.45-1.72-3.5-.64-5.19.03-5.52,2.22-7.97,6.32-7.49,12.13-11.35,12.7-24.93,22.31-40.65,30.58,2.97-7.17,5.66-13.54,8.24-19.96,1.66-4.14,3.32-8.31,4.68-12.56,1.59-4.93,2.83-9.95,4.22-14.93,1.24.31,2.29.59,3.34.83,11.06,2.47,20.96.24,29.14-7.76,4.31-4.22,7.93-9.1,9.91-14.96,2.73-8.05,5.51-16.08,8.19-24.15.69-2.07,1.43-4.22.24-7.1-1.25,1.84-2.2,3.19-3.12,4.57-3.18,4.81-6.65,9.39-11.62,12.48-3.93,2.44-7.91,4.93-12.17,6.7-7.5,3.11-14.67,6.59-20.3,12.64-.16.17-.54.13-1.14.25,0-3.54-.15-7.02.03-10.49.4-7.47,1.59-8.83,8.85-10.78.15-.04.3-.09.45-.12,8.57-1.81,16.35-5.6,23.98-9.73,3.47-1.87,6.34-4.44,8.32-7.89,2.53-4.41,1.96-7.83-1.92-11.09-1.64-1.37-3.46-2.54-5.36-3.91.63-5.22-2.05-9.32-5.39-13.24,4.84-2.3,9.5-4.28,13.91-6.7,2.38-1.31,4.47-3.23,6.44-5.13,4.92-4.79,4.06-12.1,8.08-17.41-1.12-.49-1.66-.86-2.25-.97-11.48-2.06-24.7,1.99-30.48,13.47-1.52,3.02-2.7,6.23-3.93,9.4-.71,1.85-1.19,3.8-2.8,4.54-3.07-2.33-5.82-4.4-8.68-6.58-.32-6.3-.52-12.94-1.04-19.55-.19-2.47.57-4.13,2.41-5.59,3.26-2.6,6.44-5.31,9.69-7.92.71-.56,1.6-.89,2.41-1.32,5.69-3.06,11.99-2.66,18.11-3.21,2.35-.21,4.19.35,5.45,2.59.58,1.03,1.54,2.02,2.57,2.59,6.38,3.5,13.12,5.5,20.48,4.1,7.22-1.37,13.96-3.9,19.99-8.26,3.85-2.79,7.53-6.01,12.55-6.67.4-.06.75-.5,1.66-1.12-1.2-1.05-1.92-2.1-2.9-2.46-2.74-1.01-5.59-1.74-8.4-2.56-1.77-.52-3.67-.75-5.3-1.54-7.67-3.7-15.56-4.43-23.25-.8-5.26,2.48-9.98,6.12-14.99,9.15-1.26.76-2.65,1.57-4.06,1.75-3.98.5-8,.72-12.01.98-.92.06-1.85-.18-3.14-.33,5.41-5.25,10.67-9.85,15.31-15,4.37-4.86,9.56-8.28,15.35-10.98,3.31-1.55,6.58-2.06,10.18-.29,5.37,2.64,11.14,2.08,16.81,1.06,10.03-1.8,17.38-7.68,23.27-15.65,2.39-3.23,4.67-6.54,8.21-8.74.71-.44.98-1.58,1.62-2.66-1.15-.29-1.73-.54-2.31-.56ZM763.33,205.82c2.11-.99,3,.7,3.88,1.93-.02,4.8-6.6,6.16-5.94,11.54,4.73-.07,7.49-6.6,13.31-2.97-1.53,1.46-2.68,2.61-3.89,3.7-.92.83-2.06,1.45-2.79,2.4-.44.58-.49,1.65-.32,2.41.06.27,1.33.47,1.99.35.89-.17,1.69-.75,2.57-1.03,1.97-.63,3.89-.82,6.18,1.54-4.04,3.44-7.76,6.26-12.61,7.2-2.55.49-4.55-.54-6-2.6-3.13-4.45-4.53-9.44-4.07-14.86.42-4.87,3.59-7.68,7.71-9.6ZM722.04,237.84c3.23-2.1,6.69-3.84,10.07-5.71.78-.43,1.65-.71,3.02-1.29,0,1.35.12,1.99-.02,2.55-1.57,6.11-2.74,12.38-4.91,18.26-2.53,6.88-6.38,9.66-14.1,11.81,1.87-7.32,9.45-11.88,9.35-19.74-.31-.17-.62-.34-.93-.5-1.88,3.22-3.7,6.48-5.64,9.67-1.89,3.11-3.9,6.14-6.02,9.47-2.3-9.61,1.43-19.5,9.18-24.52ZM694.61,235.56c-3.55,3.66-4.56,10.83-3.5,21.72-2.94-2.5-3.76-5.68-4.74-8.77-1.58-5.02.04-9.83,1.38-14.51,1.41-4.92,3.55-9.63,5.53-14.87,4.67,9.15,9.69,17.87,6.1,28.44-.97,2.85-2.56,5.49-4.31,8.1-2.38-6.48.12-12.95-.45-20.11ZM691.71,176.88c3.89-2.51,7.71-5.2,11.84-7.23,2.68-1.32,5.83-1.96,8.84-2.3,6.12-.69,12.27-.98,18.42-1.4,1.13-.08,2.28-.01,3.66-.01-3.24,4.38-5.74,8.7-9.12,12.14-5.41,5.51-11.39,10.52-19.32,12.13-6.39,1.3-12.34-.37-18.21-3.21,9.6-4.09,19.6-6.95,29.43-12.29-2.51-1.65-3.96-.65-5.41-.1-6.93,2.61-13.85,5.25-20.79,7.83-.94.35-1.97.47-3.41.8.62-3.03,1.95-5.01,4.06-6.37ZM680.1,152.67c2.83-4.48,5.89-8.69,11.12-10.76,1.84-.73,3.45-2.03,5.14-3.11,4.41-2.81,9.25-3.92,15.04-4.18-2.94,8.35-5.51,16.23-11.46,22.44-2.9,3.03-6.75,4.54-10.63,5.32-3.34.67-6.51-.87-9.54-3.58,7.7-5.3,14.85-10.22,21.99-15.15-.12-.38-.24-.77-.36-1.15-1.07,0-2.33-.36-3.18.07-2.04,1.05-3.93,2.41-5.83,3.74-4.02,2.85-8,5.75-12.87,9.26.31-1.7.26-2.42.57-2.91ZM677.62,104.43c-.27-1.78.55-3.9,2.76-4.97,3.27,2.7.15,7.01,2.63,9.93,3.48-1.27,2.68-6.57,7.06-6.88,1.07,1.65-.36,3.05-.68,4.54-.29,1.38-.59,2.77-.86,4.08,2.51.87,2.93-.67,3.68-1.79.73-1.11,1.57-2.15,2.62-3.58.08,7.04-4.11,11.51-10.25,11.12-1.45-.09-3.56-1.16-4.06-2.33-1.38-3.21-2.36-6.67-2.89-10.12ZM644.44,146.94c-1.21,4.87,1.88,7.64,2.77,10.98.94,3.54,2.07,7.03,3.27,11.1-3.23-.37-5.19-1.98-7.08-3.63-4.85-4.23-8.99-9.04-9.38-15.81-.19-3.34.11-6.8.8-10.08,1.19-5.69,2.84-11.29,4.48-17.65,7.21,6.7,13.84,12.88,17.8,21.32,1.63,3.46,2.42,7.1,1.38,10.78-1.24,4.4-2.92,8.67-4.8,12.98-2.64-6.68-3.49-14-9.24-19.99ZM451.67,36.24c-2.55-2.82-4.68-5.47-7.13-7.78-2.41-2.28-2.25-6.55-6.48-7.95,2.35,6.84,7.37,11.69,9.83,18.29-.88-.39-1.94-.58-2.62-1.19-4.24-3.78-8.54-7.52-12.51-11.57-1.44-1.46-2.34-3.65-2.97-5.67-1.22-3.92,1.83-7.72,5.85-7.14,2.35.34,4.75,1.33,6.81,2.55,6.98,4.15,10.61,12.17,9.21,20.46ZM399.44,26.13c-5.72-3.14-8.29-9.68-14.2-12.33,3.04,4.12,6.09,8.25,9.13,12.37-.28.24-.55.48-.82.73-6.31-4.98-13.68-8.84-17.06-16.56.26-.79.3-1.1.45-1.36,3.32-5.77,7.14-6.46,12.92-1.9,1.94,1.52,3.82,3.16,5.52,4.94,4.58,4.83,5.05,6.63,4.06,14.11ZM356.54,30.25c-1.84-1.36-3.39-2.54-4.98-3.68-1.54-1.1-3.12-2.15-4.92-2.91.85,4.28,5.2,5.35,7.82,9.12-2.89-.96-5.29-1.35-7.26-2.49-3.45-2-6.66-4.43-9.92-6.74-3.53-2.5-3.12-6.13-2.42-9.66.15-.76,1.43-1.82,2.22-1.84,2.11-.06,4.46-.12,6.33.7,6.9,3.03,11.06,8.62,13.42,15.64.12.37-.12.87-.29,1.86ZM303.55,37.08c-2.01-.85-3.47-1.43-4.9-2.08-4.21-1.91-8.45-3.75-12.57-5.84-1.07-.55-2.53-2-2.42-2.84.2-1.45,1.28-2.96,2.4-4.03.8-.76,2.25-1.12,3.42-1.16,5.19-.15,9.63,1.68,13.18,5.52,1.78,1.93,2.08,4.28,2.01,7.04-3.38-1.62-6.48-3.11-10.46-5.03,1.87,5.06,7.26,4.08,9.33,8.41ZM275.12,61.24c-3.53,2.2-7.04,4.44-10.67,6.45-2,1.11-4.16,2.13-6.38,2.63-5.1,1.16-8.32-1.96-7.55-7.01,1.12-7.36,3.73-9.57,11.12-9.2,3.69.18,7.38.51,11.06.88.98.1,1.91.62,3.67,1.23-2.88,1.4-5.01,2.56-7.24,3.5-2.23.94-4.54,1.66-6.81,2.48.12.38.25.76.39,1.13,4.77-1.5,9.54-3,14.31-4.5.1.19.21.38.32.56-.74.62-1.41,1.34-2.22,1.84ZM294.04,77.27c-3.36,1.66-7.08.44-8.16-2-1.99-4.56-.82-8.24,3.26-10.15,3.16-1.48,5.92-1.96,11.68-1.13-2.65,2.27-5.29,4.54-8.74,7.5,4.16-.7,5.98-3.28,8.26-4.99,2.29-1.73,4.32-3.78,6.72-5.43-1.55,7.7-6.29,12.87-13.02,16.21ZM345.52,66.68c-3.09,3.08-6.88,4.08-10.92,4.3-3.52.19-4.85-1.34-5.1-4.95-.39-5.65,2.22-8.88,7.72-9.43,2.91-.29,5.82-.42,9.16.02-1.13.86-2.25,1.73-3.39,2.56-1.07.77-2.17,1.5-3.07,2.53,5.41-.84,8.62-5.4,13.08-7.88-1.98,4.72-3.86,9.26-7.48,12.85ZM394.24,61.8c-1.64,2.94-3.56,5.79-5.77,8.32-1.24,1.42-3.2,2.56-5.05,3.04-5.31,1.38-10.57,1.56-15.6-1.52-4.11-2.52-5.2-6.86-1.81-10.37,1.75-1.83,4.09-3.49,6.47-4.26,5.83-1.86,11.83-3.15,17.77-4.68.17.2.34.39.51.59-2.05,2.58-4.11,5.15-6.16,7.73,4.84-1.28,7.49-5.35,11.36-8.69.39,3.88-.17,7.04-1.72,9.84ZM436.84,64.16c-4.56,3.73-9.46,6.94-15.12,8.75-4.44,1.42-8.23-.62-11.51-3.17-2.85-2.23-2.94-5.63-1.85-8.93,1.36-4.11,4.32-6.52,8.6-6.5,5.05.02,10.11.56,15.15.96,2.07.17,4.13.54,6.56.88-4.63,5.01-10.56,6.53-16.2,8.65,6,.68,10.9-2.52,16.6-4.61,0,2.1-1.14,3.09-2.23,3.98ZM475.99,77.39c5.2.01,10.23-1.44,15.94-2.99-1.92,3.61-4.26,5.89-7.36,7.12-4.02,1.59-8.19,2.8-12.31,4.15-.59.19-1.21.29-1.82.34-4.81.42-8.97-1.68-9.51-4.78-.78-4.5,2.16-9.57,6.48-11.01,7.43-2.47,14.96-1.76,22.49-.61.45.07.89.28,1.28.51.24.14.41.43,1.34,1.45-5.96,1.69-11.36,3.23-16.74,4.76.07.35.14.71.21,1.06ZM502.78,36.32c1.39,6.03,2.77,12.06,4.18,18.21-.92,0-1.38.13-1.5-.02-3.67-4.54-7.97-8.75-10.73-13.79-2.21-4.03-3.01-9.05-.33-13.75,1.24-2.18,2.95-3.07,5.32-2.83,5.26.54,9.66,2.94,12.07,7.56,3.14,6.01,4.28,12.5,1.76,19.2-.58,1.54-.94,3.16-1.56,5.32-3.76-6.68-3.98-14.48-9.2-19.89ZM505.92,97.41c3.14,1.93,5.53.3,7.96-.18,2.54-.5,5.08-1.05,7.61-1.59.16.31.33.62.5.93-.77.66-1.44,1.5-2.32,1.94-3.86,1.96-7.79,3.76-11.65,5.72-3,1.52-6.18,1.8-9.45,1.61-3.98-.23-7.19-2.39-7.98-5.34-.49-1.86,1.81-7.17,4.05-8.41,1.83-1.01,3.98-2.01,6-2.02,6.63-.06,13.26.31,19.89.56.88.03,1.74.37,2.75,1.34-5.6,1.75-11.21,3.5-17.36,5.42ZM539.81,88.94c1.67,1.43,3.15,2.69,4.63,3.95-.14.3-.28.6-.42.9-2.48-.64-4.95-1.28-8.28-2.14,1.79-1.19,2.85-1.9,4.06-2.7ZM553.95,124.6c-7.77,4.55-15.64,8.79-25.07,8.52-6.7-.19-11.33-3.8-14.69-9.14-2.22-3.52-.17-8.47,4.11-9.67,3.37-.94,7.02-1.49,10.5-1.31,5.07.27,10.11,1.29,15.13,2.17,1,.17,1.86,1.16,2.78,1.77-.19.37-.39.74-.58,1.11h-18.01c3.26,2.08,6.01,2.36,8.67,2.59,3.68.33,7.42.69,11.09.4,2.86-.22,4.7.8,6.43,2.58-.15.46-.16.87-.35.98ZM565.77,112.01c-3.74-2.93-7.94-5.28-12.04-7.73-1.16-.69-2.66-.82-4.25-.69,3.18,4.93,8.62,6.82,12.91,10.13,4.17,3.21,9.18,5.34,13.82,7.94-.07.32-.14.64-.2.95-4.73,0-9.48.33-14.17-.09-4.78-.43-8.93-2.97-11.79-6.67-4.97-6.43-9.4-13.27-14.65-20.8,8.57,1.47,16.03,2.39,23.31,4.09,6.83,1.59,12.16,5.79,16.05,11.7,1.68,2.56,3.38,5.12,4.85,7.95-4.74-2.1-9.66-3.52-13.83-6.78ZM611.68,122.81c-.65-5.28.62-10.97-2.95-16.37-2.44,3.46-.5,6.25-.4,8.99.12,3.08.46,6.16.78,9.23.3,2.91.71,5.81,1.07,8.78-11.5-10.7-13.32-31.46-3.97-47.92,1.5,2.24,2.85,4.34,4.3,6.38,1.43,2.02,3.03,3.91,4.4,5.97,2.4,3.59,4.91,7.14,6.96,10.93,2.56,4.73,2.66,9.69.38,14.7-.75,1.66-1.09,3.53-1.48,5.34-.93,4.24-3.11,7.62-7.12,10.67-.69-5.89-1.31-11.29-1.97-16.7ZM560.61,156c-1.13.96-2.07,2.18-2.9,3.41-2.51,3.71-6,5.15-10.37,4.84-1.76-.12-2.91-.95-3.42-2.61-.58-1.85.49-2.93,1.89-3.79,1.05-.65,2.28-1.09,3.17-1.91.7-.65,1.49-1.85,1.31-2.59-.16-.7-1.47-1.39-2.39-1.59-1.62-.34-3.31-.3-5.47-.46.63-3.17,2.44-3.95,4.39-4.49.72-.19,1.62.1,2.28-.2.87-.39,1.57-1.14,2.34-1.73-.53-.68-.93-1.57-1.62-2-1.62-1.01-3.38-1.8-5.43-2.86,2.67-2.65,5.32-3.61,8.06-2.33,4.86,2.27,9.04,5.39,10.53,11,.89,3.37.33,5.01-2.37,7.3ZM583.02,193.95c-8.42,2.3-16.39-1.16-24.66-5.34,11.18-8.12,21.55-17.09,36.68-11.47-.01,1.72-1.46,2.02-2.74,2.46-3.5,1.21-7.02,2.35-10.5,3.61-1.49.54-2.91,1.27-4.77,2.1,1.9,1.83,3.42,1.38,4.84.91,4.23-1.43,8.43-2.97,12.65-4.43,2.58-.89,5.19-1.7,8.54-2.79-4.59,8.88-12.06,12.78-20.04,14.96ZM640.18,227.6c-.05.61-.24,1.22-.44,1.78-.09.24-.42.39-.95.85-4.22-6.97-7.61-14.49-14.08-19.81,3.13,9.11,9.01,16.74,14.27,25.87-4.22-.77-7.34-1.9-10.28-3.76-5.25-3.3-8.34-8.21-10.14-13.92-1.88-5.97-3.37-12.07-5.23-18.79,5.06,1.29,8.45,3.93,12.16,5.91,1.76.94,3.48,1.99,5.13,3.13,6.51,4.53,10.25,10.53,9.57,18.74ZM606.89,250c-2.07.91-4.39,1.47-6.64,1.71-2.74.29-5.54.11-8.31.09-3.57-.03-3.57-.06-4.78-4.33,4.04-3.52,9.45.29,13.98-2.01-1.66-3.93-7.78-2-8-6.91,2.17-1.57,3.92-.21,5.72.47,1.53.58,3.36,2.13,4.61.45,1.42-1.9-.92-2.86-2.02-3.98-1.26-1.29-2.64-2.48-2.38-4.61,5.74.79,11.78,6.44,12.41,11.43.41,3.21-1.16,6.18-4.59,7.7ZM660.99,304.69c-.68-.91-1.27-1.47-1.59-2.16-2.34-5.04-4.6-10.11-6.95-15.14-.81-1.72-1.62-3.56-4.78-4.64,3.86,8.34,7.28,15.74,11.02,23.84-3.76-.58-6.22-1.67-7.99-3.91-7.75-9.81-12.84-20.95-16.7-33.44,18.81,4.96,29.85,23.48,26.99,35.45ZM621.64,307.97c1.55,4.09,5.05,6.02,8.47,7.89,3.3,1.8,6.83,3.19,10.64,4.93-7.27,2.82-14.12,2.32-20.89.64-1.81-.45-3.73-1.74-4.88-3.2-4.82-6.08-7.22-13.43-10.79-20.81,7.27,1.13,13.78,2.25,20.31,3.12,5.44.73,9.38,3.83,12.68,7.81,2.64,3.18,4.87,6.7,7.68,10.64-8.74-2.45-16.29-5.9-23.21-11.03ZM211.9,605.81c-7.52-9.03-11.62-19.46-13.53-31.05-2.22-13.5-1.38-26.82.9-40.16.1-.58.41-1.13.8-2.15,4.78,5.5,7.23,11.62,8.37,18.33,1.54,8.99,2.88,18.01,4.58,26.96.63,3.31,2.09,6.45,3.12,9.69.83,2.63,1.6,5.26,2.38,7.9.22.74.26,1.62.69,2.2,2.4,3.2,1.95,7.01,2.15,10.77-5.36-5.94-9.1-12.75-12.27-19.99-3.14-7.19-3.49-14.87-4.47-22.47-4.21,13.84,3.31,33.58,16.91,48.54-3.87-2.09-6.86-5.23-9.64-8.57ZM223.26,583.93c.42-2.18,1.57-4.31,2.75-6.25,2.8-4.61,5.83-9.1,8.74-13.64.47-.73.83-1.54,1.24-2.31-.33-.22-.67-.44-1-.66-3.6,4.96-7.25,9.88-10.76,14.9-1.22,1.74-2.27,3.65-3.04,5.62-.61,1.54-.67,3.29-.96,4.92-3.82-4.42-4.6-9.39-2.08-14.33,1.69-3.3,3.15-6.84,5.45-9.67,3.18-3.92,6.79-7.59,10.69-10.79,3.16-2.58,7.03-4.31,11.5-6.96-.17,2.83-.17,4.74-.41,6.62-1.31,10.17-4.25,19.87-8.4,29.23-.99,2.25-1.83,4.6-2.47,6.97-1.76,6.56-3.31,13.18-5.11,19.73-.49,1.8-1.6,3.42-2.93,5-2.38-9.45-5.08-18.69-3.21-28.37ZM92.85,284.15c1.62-3.22,4.4-5.06,7.13-6.73,5.84-3.58,12.12-6.18,19.08-6.58,6.09-.35,12.18-.6,19.12-.93-14.73,10.29-29.52,18.37-48.35,18.48,6.13-3.06,11.45-6.27,17.18-8.4,5.83-2.17,12.07-3.26,17.97-5.35-11.2,1.37-22.36,2.92-32.13,9.51ZM98.04,253.48c-6.49,13.87-15.75,25.49-28.32,34.45,1.96-5.58,6.12-9.71,9.64-14.2,3.51-4.49,7.49-8.61,11.94-13.65-1.52.65-2.37.77-2.83,1.25-2.73,2.93-5.47,5.84-8.01,8.93-5.25,6.42-10.38,12.95-15.57,19.43,5.14-17.42,16.05-29.61,33.14-36.22ZM104.92,236.85c8.38,3.14,17.04,4.19,25.93,3.53.38-.03.73-.42,1.1-.64,0-.34,0-.68.02-1.03-4.55-1.43-9.44.15-13.99-1-4.55-1.14-9.48-1.06-13.95-3.97,14.63-3.89,27.76-1.14,39.95,6.4-12.56,4.76-36.64,4.92-46.14-4.83,2.86-.53,4.94.73,7.09,1.53ZM133.29,207.63c0-.08-.02-.14-.01-.23.04-.05.1-.09.14-.13-.18-2.09,1.23-3.27,2.91-4.86,1.23,3.42-1.71,3.6-2.91,4.86,0,.1-.03.17-.01.27-.04.03-.07.06-.11.09-.01,1.42.58,2.21,2.15,1.73,1.25-.39,2.44-.99,3.83-1.58.77,3.27-2.7,3.41-3.12,5.66,2.08,2.58,4.48-1.07,6.91.34-.73,2.51-2.89,3.37-5.05,3.64-2.04.24-4.51.37-6.18-.55-2.9-1.6-1.85-7.11,1.45-9.25ZM201.17,177.27c-3.8,2.12-7.74,1.85-11.22,3.03-3.79,1.29-7.68,2.38-11.62,3.1-3.77.69-7.65.8-11.65.65,2.43-.79,4.86-1.57,7.29-2.35-7.22-1.2-13.74,2.67-21.84,2.18,16.08-7.45,31.97-8.78,49.04-6.6ZM151.51,159.73c7.93-2.86,16.12-5,25-7.7-8.7,11.18-21.59,19.6-34.45,21.07,6.88-4.53,13.38-8.81,19.87-13.08-.17-.32-.33-.64-.51-.96-1.89.83-3.86,1.49-5.62,2.53-6.91,4.08-13.75,8.28-20.63,12.42-.72.43-1.55.69-2.52.7,5.23-6.39,11.03-12.15,18.85-14.97ZM197.58,132c2.33-2.26,4.94-3.74,8.21-3.4.32.4.64.79.96,1.19-1.33.45-2.65.9-3.96,1.35.26.44.52.88.78,1.32,1.25.58,2.5,1.17,4.2,1.96-1.82,1.02-3.3,1.85-5.36,3,1.67.96,2.77,1.59,3.84,2.21-.15.38-.21.84-.34.86-1.79.23-3.62.67-5.38.52-1.8-.17-3.72-.69-4.18-2.98-.45-2.18-.56-4.29,1.22-6.02ZM183.34,111.17c8.9-9.73,25.9-17.27,44.72-13.82-.81.75-1.34,1.33-1.96,1.79-8.87,6.72-18.89,10.98-29.52,14.04-6.37,1.83-12.63,4.06-18.94,6.1-.84.27-1.71.43-2.67.35,8.95-7.82,20.22-10.38,31.14-14.09-7.89.37-15.3,2.77-22.77,5.62ZM148.24,113c1.07-3.52,2.25-7.17,4.22-10.24,4.7-7.32,10.77-13.42,19.22-18.81-1.81,7.27-2.56,13.7-4.79,19.85-2.41,6.63-8.17,10.24-13.05,14.79,3.15-8.08,7.54-15.53,10.77-23.58-6.05,8.5-11,17.64-16.22,26.81-.89-2.96-1.01-5.99-.15-8.82ZM116.89,98.8c-.7-1.36-1.13-2.62.17-3.73,1.11-.95,3.49-.4,4.52.99.45.61.68,1.38,1.01,2.07.27.56.53,1.12.79,1.68.41-.12.83-.25,1.24-.37.46-1.29.92-2.59,1.44-4.03,3.24.41,1.31,4.5,4.27,5.72.76-1.13,1.41-2.1,2.17-3.24.33.54.61.86.75,1.24.91,2.57-.08,4.56-2.08,6.09-1.85,1.42-3.84,1.56-6.08.64-3.56-1.46-6.4-3.58-8.2-7.07ZM103.29,139.3c-.85-2.4-1.76-4.77-2.54-7.19-.74-2.29-1.35-4.62-2.8-6.81-.14,1.43-.27,2.86-.5,5.12-1.84-8.59-3.51-16.4-5.2-24.2.31-.13.61-.26.92-.4,1.38,2.61,3.07,5.11,4.09,7.85,2.44,6.65,4.67,13.4,6.78,20.17.5,1.62.24,3.48.32,5.23-.36.07-.71.15-1.07.22ZM106.31,154.6c-.29-.85-.57-1.69-.86-2.53.32-.09.62-.18.94-.27.23.86.45,1.72.68,2.58-.25.07-.5.15-.75.22ZM57.78,190.73c1.51-2.98,2.51-6.22,4.52-9.31.11,1.25.32,2.51.32,3.76,0,8.34.05,16.67-.08,25-.12,7.79-1.32,15.34-5.39,22.23-1.56,2.63-2.77,5.48-4.48,8.92-.77-4.15-.69-7.64.09-11.15,1.25-5.55,2.52-11.09,3.78-16.63-2.03.51-1.59,2.42-2.03,3.75-.92,2.76-1.59,5.6-3.1,8.42-.16-.77-.43-1.53-.46-2.29-.35-11.45,1.61-22.39,6.84-32.7ZM29.3,187.35c-.36.01-.72.02-1.09.03-.19,2.26-.73,4.55-.51,6.78.6,6.14,1.52,12.26,2.29,18.39.36,2.84.68,5.69,1.01,8.53-.35.14-.69.27-1.04.41-.94-1.65-2.22-3.19-2.77-4.96-2.07-6.65-3.68-13.37-3.17-20.48.41-5.68.25-11.41.48-17.1.1-2.6.52-5.19,1.23-7.86,5.11,8.91,8,18.52,9.69,28.53,1.68,9.98,1.96,20.05,1.99,30.17-5.48-13.64-7.25-27.95-8.11-42.43ZM26.69,269.57c-.51,1.68-2.29,1.9-3.93,1.19-3.86-1.67-6.31-4.85-8.5-8.23-.35-.54-.03-2.23.4-2.41.97-.43,2.35-.59,3.3-.22,1.14.44,2.03,1.56,3.02,2.38.32-.25.64-.51.95-.77-.15-1.4-.29-2.79-.45-4.36,2.49.54,1.26,4.31,4.48,3.85.14-1.24.27-2.52.54-5.01,1.13,1.87,2.26,2.88,2.16,3.73-.41,3.32-1.01,6.65-1.97,9.84ZM17.38,325.47c-4.08-6.82-7.33-14.13-10.94-21.23,3.28,12.29,8.67,23.51,16.57,33.59-2.8-.82-5.1-2.36-6.63-4.76-3.42-5.32-7.28-10.49-9.81-16.21-2.21-4.99-2.94-10.65-4.18-16.04-.48-2.08-.54-4.26-.26-6.75,5.81,7.98,11.5,16.04,17.45,23.92,5.97,7.92,9.8,16.91,14.38,26.55-7.5-5.51-12.39-12.08-16.57-19.05ZM83.99,365c3.22,1.66,3.89,3.05,2.36,6.3-3.29,6.96-8.67,11.91-15.53,15.29-3.39,1.68-6.78,3.33-10.33,5.07.71-9.69,5.43-15.55,14.83-18.23-2.87-1.57-5.02-1.66-7.7.48-2.14,1.71-3.93,3.88-5.71,5.99-1.08,1.27-1.85,2.79-2.83,4.3-.48-4.59.7-8.38,4.03-13.14,4.56-6.52,14.45-9.39,20.9-6.07ZM96.4,315.41c-10.99,6.07-20.6,13.79-28.88,23.76,3.73-11.71,22.35-28.16,42.54-37.64-2.97,7.21-5.46,13.67-8.3,19.96-2.21,4.9-5.95,8.56-10.53,11.43-8.64,5.41-17.21,10.94-25.81,16.4-.46.29-.99.47-1.78.35,8.82-13.46,20.4-24.2,32.76-34.27ZM36.96,358.61c.31-1.32,1.15-2.51,1.78-3.76,2.79-5.52,5.81-6.39,11.15-3.17.89.53,1.61,1.34,2.71,2.28-5.54,7.92-7.69,16.46-4.43,26.75-4.92-5.82-5.74-10.21-4.81-20.38-4.63,4.6-2.03,10.01-1.32,15.95-1.03-1.06-1.91-1.61-2.26-2.4-1.32-2.94-2.84-5.88-3.56-8.99-.44-1.94.25-4.21.74-6.27ZM19.31,379.7c.99,5.39,6.05,6.85,7.63,10.75-5.05-.35-12.22-5.88-13.49-10.49-.53-1.89-.46-3.74,1.07-5.16,1.43-1.33,3-2.51,4.76-3.97,4.1,10.38,10.59,18.11,19.76,23.64-8.79-1.51-12.61-9.76-19.73-14.78ZM47.7,393.99c-4.57-.86-7.59-2.64-10.39-4.52-7.21-4.85-12.94-11.03-14.95-19.8-1.85-8.09,3.61-14.74,12.48-15.22,0,.56.19,1.21-.03,1.65-4.15,8.34-.59,15.26,4.17,21.81,3.16,4.36,6.73,8.43,10.12,12.63-7.86-2.9-13.51-8.09-17.68-14.98,1.84,8.7,8.78,13.11,16.27,18.45ZM52.43,384.79c-.38-1.19-.76-2.37-1.14-3.55.24-.09.48-.17.71-.25.44,1.09.88,2.19,1.32,3.28-.3.17-.59.35-.89.52ZM51.13,377.49c-2.77-5.9-1.07-16.17,3.34-20.81,3.22-3.39,10.6-3.78,13.21.07.94,1.39,2.08,2.65,3.17,4.01-3.49,2.74-7.31,4.93-9.99,8.09-2.58,3.04-3.98,7.09-6.19,11.26-2.16-7.31,1.32-12.75,4.66-18.67-4.24,2.51-6.41,6.98-8.2,16.05ZM53.12,436.75c-11.08,2.82-20.9.61-28.79-7.91-3.79-4.08-6.95-8.66-8.72-14.1-1.9-5.84-4.09-11.58-6.4-18.07,1.17.63,1.62.74,1.87,1.03,6.39,7.58,14.99,11.84,23.83,15.63,5.94,2.54,11.26,5.83,15.53,10.67,1.49,1.69,2.63,3.68,3.93,5.54-.3.32-.59.63-.89.95-4.07-1.32-8.15-2.58-12.2-3.96-5.8-1.99-10.09-5.8-13.2-11.07-.94-1.59-1.7-3.61-4.95-4.26,2.8,6.39,5.64,11.9,11.35,14.8,4.63,2.35,9.75,3.79,14.74,5.35,2.43.76,4.6,1.67,6.56,3.94-.97.55-1.75,1.24-2.66,1.47ZM68,437.35c2.04-6.57,4.64-12.97,6.92-19.26-2.02,1.25-6.77,8.77-8.54,15.18-1.59,5.77-2.35,11.76-3.47,17.57-2.35-4.19-2.46-9.02-2.16-13.9.1-1.7.49-3.39.43-5.08-.42-11.85,5.23-20.77,13.8-28.09,3.97-3.39,8.54-6.08,12.77-9.17,1.85-1.35,3.55-2.91,6.05-4.98,1,4.94,1.99,9.12,2.65,13.36.59,3.76-.42,7.32-1.95,10.79-2.95,6.69-6.84,12.73-11.19,18.62-5.94,8.05-11.26,16.56-16.88,24.93-.37-6.56-.46-13.39,1.57-19.97ZM68.97,516.27c5.35,1.1,9.99,3.72,15.24,6.33-7.21,0-13.71.4-20.14-.1-7.52-.59-13.68-4.66-19.17-9.54-3-2.67-4.22-6.5-4.4-10.45-.21-4.58-.05-9.18-.05-14.73,4.57,2.23,8.59,3.79,12.17,6.05,4.69,2.96,9.01,6.49,13.5,9.76,4.73,3.44,9.42,6.95,14.23,10.29,3.36,2.33,6.88,4.42,10.17,6.89-4.4.16-7.99-2.18-11.91-3.38-.88-.27-1.65-.89-2.54-1.13-6.36-1.68-12.72-3.39-18.44-6.91,2.94,3.77,6.8,5.98,11.33,6.91ZM115.82,486.66c-.41-.99-.87-1.97-1.2-2.98-2.65-8.05-3.14-16.36-3.07-24.75.02-2.1-.24-4.19-.95-6.32-1.3,2.62-.93,5.42-.97,8.14-.03,2.94.01,5.89.17,8.82.15,2.93.36,5.87.79,8.76.44,2.9,1.22,5.74,1.81,8.62.58,2.8,1.11,5.61,1.67,8.43-7.21-6.78-12.02-14.46-12.38-24.52-.28-7.88.69-15.39,3.83-22.64,2.15-4.96,4.03-10.04,6.06-15.06.33-.81.82-1.56,1.22-2.31,9.08,10.65,9.67,22.87,7.31,35.6-1.24,6.67-2.81,13.28-4.29,20.2ZM122,471.96c.69-4.88,1.44-9.77,2.41-14.6.75-3.75,1.52-7.58,2.91-11.12,4.22-10.78,11.5-19.35,20.33-26.63,2.11-1.73,4.64-2.93,7.54-4.72-.58,5.47-1.34,10.16-1.52,14.88-.42,11.28-.45,22.58-.9,33.86-.14,3.49-.74,7.07-1.8,10.39-1.59,4.99-3.56,9.89-5.74,14.66-2.84,6.22-7.34,11.01-13.57,14.08-3.55,1.75-6.44,4.18-8.07,7.98-.54,1.27-1.67,2.29-3.09,4.16.03-5.98,1.18-10.5,3.56-14.8,2.83-5.14,5.36-10.44,8.09-15.64,2.41-4.59,3.37-9.53,4.22-14.6,1.25-7.6,3.03-15.12,4.58-22.67.24-1.17.44-2.34.65-3.51-.33-.07-.65-.14-.97-.21-.46.92-1.09,1.79-1.34,2.76-2.21,8.51-4.69,16.98-6.42,25.59-1.28,6.35-4.01,11.98-6.78,17.66-1.73,3.54-3.85,6.88-5.79,10.32-.35-.07-.71-.15-1.06-.22-.17-1.1-.6-2.23-.47-3.28,1.01-8.11,2.08-16.23,3.24-24.32ZM137.61,572.19c-.24-.27-.49-.53-.74-.8-.56-1.24-1.4-2.42-1.63-3.72-1.67-9.45-2.92-18.95-1.26-28.55.47-2.73,1.18-5.42,1.79-8.13,1.03-4.51,2.06-9.01,3.2-13.97,2.58,2.41,4.94,4.68,7.37,6.88,3.78,3.42,7.7,6.7,11.41,10.19,3.86,3.63,5.85,8.35,6.78,13.45,1.22,6.75-1.17,12.47-5.77,17.36-4.85,5.17-11.18,7.6-17.87,9.13-.91.21-2.18-1.18-3.28-1.83ZM138.49,605.13c-5.1,5.85-11.34,6.16-18.14,3.73-2.47-.88-4.96-1.73-7.4-2.69-8.11-3.18-13.72-9.02-18.1-16.6,5.06-.83,9.68-1.69,14.33-2.3,1.8-.23,3.72-.12,5.51.23,8.46,1.67,16.89,3.47,25.33,5.23,0,.42-.01.84-.02,1.26-9.3,4.67-18.91,4.26-29.05.59,2.17,3.24,4.26,4.29,11.56,4.81,4.42.31,9.03.35,13.32-.55,3.96-.84,7.61-3.11,11.67-4.08-3,3.46-6,6.91-9.01,10.36ZM234.71,670.78c-2.44,3.3-6.06,4.64-10.18,4.59-5.32-.07-10.46-1.05-15.32-3.17-7.07-3.07-14.05-6.32-21.1-9.43-2.5-1.1-5.08-2.02-8.26-3.27,4.73-3.99,9.49-6.84,15.03-7.37,6.11-.58,12.3-.17,18.45-.27,6.32-.09,12.63-.22,18.94-.43,1.63-.06,3.33-.91,4.69,1.19-6.07,4.62-12.27,8.22-20.35,6.88-3.16-.52-6.44-.51-9.66-.51-1.37,0-2.75.61-4.12.93.09.37.19.74.29,1.11,6.13.29,12.25.79,18.38.82,5.89.02,11.02-2.61,15.99-5.55,2.09-1.24,4.27-2.93,6.8.33-3.09,4.61-6.15,9.52-9.56,14.15ZM307.42,696.51c-4.93,4.05-10.5,5.9-16.71,5.71-4.45-.13-8.87-.79-13.87-1.27.7-1.2,1.07-2.13,1.69-2.85,3.74-4.43,8.35-7.86,13.33-10.68,3.99-2.26,7.48-4.9,10.09-9.28,1.52.64,2.61,1.1,3.94,1.67-1.75,4.81-6.05,7.17-8.96,10.63-2.89,3.44-6.48,6.12-11.19,7.03.09.34.18.69.27,1.03.91.1,2.02.58,2.7.24,2.73-1.39,5.51-2.79,7.92-4.65,3.16-2.45,6.09-5.24,8.93-8.08,1.49-1.49,2.59-3.38,4.2-5.55,2.49.98,5.27,2.08,8.09,3.21-2.88,5.21-6.17,9.36-10.43,12.86ZM331.14,682.79c-1.7-.91-3.18-1.68-4.96-2.63,1.37-10.41-3.17-19.01-9.85-26.28-4.29-4.67-8.13-10.43-15.11-11.97,4.21,4.14,8.61,8.11,12.59,12.47,6.21,6.81,10.3,14.55,9.08,24.62-2.39-.67-4.61-1.16-6.72-1.93-.93-.34-1.78-1.14-2.41-1.94-3.64-4.59-6.93-9.5-10.85-13.82-6.58-7.26-11.2-15.51-13.65-24.93-.76-2.91-.64-6.05-1-9.93,1.62.95,2.52,1.37,3.29,1.95,6.38,4.87,12.72,9.81,19.12,14.66,1.48,1.11,3.06,2.11,4.69,2.97,10.81,5.66,18.05,14.79,24.29,24.89.64,1.03,1.04,2.26,1.29,3.45.63,2.95-.04,4.21-2.82,5.44-1.12.5-2.32.79-3.46,1.27-1.12.47-2.19,1.06-3.5,1.69ZM355.07,703.38c3.75.03,5.68,2.29,8.78,3.15-1.25,1.5-1.99,2.39-3.06,3.69-1.88-2.26-3.58-4.28-5.71-6.84ZM360.59,724.17c-1.08.94-2.33,1.59-3.73.48-1.41-1.12-1.72-2.65-.92-4.12.99-1.84,2.3-3.5,3.76-5.65,1.77,1.98,3.16,3.54,4.86,5.46-1.41,1.37-2.63,2.67-3.97,3.83ZM361.53,712c1.28-1.16,2.38-2.17,4.03-3.65,1.6,1.49,2.7,2.53,3.94,3.68-1.31,2.29-2.35,4.14-3.81,6.7-1.48-2.4-2.64-4.27-4.16-6.72ZM375.19,720.41c.83,1.46.53,3-.83,4.16-1.34,1.14-2.6.62-3.74-.33-1.28-1.06-2.48-2.22-4.15-3.74,1.67-1.89,3.15-3.56,4.92-5.56,1.41,2,2.76,3.65,3.79,5.47ZM370.67,710.14c-1.07-1.06-1.99-1.98-3.39-3.37,2.97-1.47,5.29-2.62,7.62-3.77.22.25.44.51.65.76-1.48,1.93-2.97,3.88-4.88,6.38ZM411.49,678.13c-1.04.15-2.03.53-3.09.82-1.88-8.58,1.88-15.52,6.48-21.65,4.21-5.61,9.74-10.23,14.91-15.52-1.96-.18-3.58.67-4.96,2-3.67,3.55-7.75,6.8-10.82,10.82-5.07,6.61-9.81,13.59-8.98,22.65.09.91.02,1.83.02,2.8-1.78.98-3.36,1.86-4.89,2.7-3.21-1.34-6.3-2.62-9.35-3.89-1.22-3.15-.62-5.94,1.02-8.54,6.37-10.04,13.71-19.07,24.59-24.67,2.72-1.4,5.1-3.48,7.57-5.34,5.91-4.45,11.78-8.95,18.3-13.91,1.1,9.81-2.24,17.81-6.83,25.15-3.5,5.6-8.2,10.44-12.36,15.63-1.35,1.69-2.97,3.26-3.91,5.17-1.64,3.34-4.06,5.27-7.71,5.79ZM438.74,687.12c5.14,2.84,9.87,6.36,13.76,10.85.65.76,1.16,1.64,2.17,3.09-5.99.42-11.33,1.25-16.64,1.08-9.61-.31-16.2-6.08-21.68-13.36-1.09-1.45-1.87-3.12-3.07-5.16,2.95-1.14,5.71-2.22,7.72-3,2.52,2.74,4.4,4.93,6.45,6.97,2.06,2.08,4.18,4.13,6.47,5.96,2.15,1.72,4.46,3.29,6.86,4.65,1.21.69,2.75,1.39,4.5,0-2.8-1.67-5.53-2.96-7.85-4.77-2.3-1.79-4.28-4.01-6.24-6.19-2.02-2.22-4.94-3.77-5.78-7.33,1.15-.58,2.19-1.1,3.22-1.63.49.41.91.64,1.17.99,2.39,3.31,5.34,5.85,8.96,7.85ZM519.26,651.5c10.65-.49,21.07-.49,30.13,6.33.48.36.92.79,1.88,1.64-2.86,1.12-5.39,2.01-7.83,3.09-6.62,2.94-13.12,6.15-19.83,8.88-3.82,1.56-7.88,2.8-11.94,3.48-10.23,1.71-13.56-.86-19.62-9.5-1.92-2.74-3.2-5.93-4.89-9.17,1.42-1.71,3.1-2.25,5.26-.6.98.74,2.11,1.29,3.2,1.86,5.98,3.13,12.1,5.28,19.08,4.09,3-.52,6.15-.21,9.24-.26,1.45-.02,2.91,0,4.41-.57-2.69-2.17-5.83-2.03-8.91-1.9-1.84.07-3.69.35-5.52.65-7.88,1.31-13.91-2.43-19.61-7.83,1.4-.1,2.79-.27,4.19-.27,6.92.03,13.85.41,20.75.09ZM521.78,595.24c-.89.66-1.87,1.23-2.69,1.98-7.11,6.48-8.88,20.46-2.73,28.48.74.97,1.39,2.05,1.94,3.15.48.96.77,2.01,1.3,3.44-1.24.72-2.15,1.26-2.83,1.65-3.34-1.7-6.37-3.5-9.6-4.84-5.82-2.42-9.58-14.32-6.98-19.68,5.49-11.33,13.37-19.9,24.49-25.62.82-.42,1.62-.89,2.43-1.35.66-.37,1.31-.77,2.35-1.37.45,1.28.99,2.34,1.19,3.45,1.17,6.67.62,13.2-1.52,19.66-2.62,7.85-6.98,15.19-6.39,24.78-5.08-5.47-7.79-10.92-7.78-17.23.02-6.21,3.52-11.23,7.6-15.84-.27-.21-.53-.43-.79-.65ZM587.1,595.24c6.9,5.13,14.72,5.06,22.65,4.02,2.88-.38,5.71-1.31,8.5-2.14.74-.22,1.3-1.05,1.94-1.61-.09-.29-.17-.58-.26-.88-8.53,3.35-17.1,3.76-25.67.83-1.23-.42-2.32-1.25-4.46-2.44,10-2.09,18.82-4.14,27.73-5.66,2.94-.51,6.13.23,9.18.6,3.03.37,6.03.98,9.47,1.56-2.64,5.44-6.64,9.88-11.61,13.24-6.22,4.2-13.35,6.39-20.75,7.55-3.64.57-6.78-1-9.23-3.45-3.79-3.79-7.26-7.89-10.56-12.58,1.03.31,2.24.36,3.05.96ZM602.09,477.71c2.88-6.26,5.05-12.84,7.73-19.76,3.38,3.26,6.94,6.65,8.17,11.54,1.49,5.97,2.98,12.03,3.52,18.14.83,9.48-2.44,17.9-8.44,25.26-2.43,2.97-4.82,5.96-7.76,9.58,1.47-12.11,2.83-23.34,4.26-35.17-2.11,2.34-2.68,4.36-3.84,12.28-.63,4.28-1.28,8.56-1.91,12.84-.62,4.21-1.23,8.41-2.71,12.69-1.11-6.34-2.17-12.7-3.35-19.04-1.84-9.97.13-19.26,4.34-28.36ZM593.7,522.81c-2.48-6.14-5.03-12.25-7.43-18.42-1.61-4.13-4.8-6.61-8.34-8.95-3.03-1.99-5.79-4.4-8.54-6.52.54,3.01,2.61,5.59,5.52,7.41,6.18,3.89,9.97,9.65,12.52,16.2,1.72,4.41,2.65,9.11,4.1,14.29-1.53-.31-2.56-.35-3.43-.73-10.61-4.59-18.73-11.96-23.73-22.39-1.44-3-2.06-6.48-2.53-9.81-1.17-8.26-.85-16.51.98-25.15.95.7,1.57,1.08,2.11,1.56,3.93,3.49,7.99,6.84,11.7,10.54,4.69,4.67,9.52,9.3,13.52,14.54,7,9.13,8.23,19.56,5.08,31.63-.73-2.02-1.09-3.12-1.52-4.19ZM598.49,526.62c2.55,5.74,1.23,11.15-.24,16.87-2.79-7.8-2.77-9.32.24-16.87ZM650.41,514.1c4.93-3.43,9.93-6.79,14.58-10.59,6.86-5.61,14.09-10.56,22.22-14.12.82-.36,1.69-.58,3.35-1.13,0,5.34.18,9.97-.05,14.59-.25,5.23-2.48,9.6-7.05,12.37-3.68,2.23-7.5,4.24-11.38,6.14-1.48.73-3.26,1.14-4.92,1.17-6.46.13-12.92.06-19.65.06,4.37-2.81,8.96-5.11,14.05-6.14,4.88-1,8.78-3.54,12.15-7.29-3.45,1.63-6.81,3.45-10.36,4.83-3.72,1.44-7.6,2.5-11.44,3.65-3.76,1.13-7.17,3.5-12.25,3.37,4.08-2.61,7.5-4.64,10.76-6.9ZM669.02,449.2c-.29.86-.68,1.68-1.35,2.57.39-12.94-4.47-24.01-11.73-34.26,2.44,6.57,5.56,12.98,7.15,19.75,1.56,6.64,1.57,13.64,1.44,20.72-.62-1-1.33-1.96-1.86-3-4.42-8.56-9.82-16.47-15.84-23.95-4.62-5.73-7.91-12.16-10.86-18.81-.62-1.39-1-2.94-1.19-4.46-.8-6.12,1.22-11.76,2.74-17.75,6.1,4.45,11.95,8.44,17.47,12.83,7.33,5.81,13.27,12.91,14.41,22.47.94,7.89,2.36,15.98-.38,23.9ZM663.13,376.53c2.28,1.94,3.98,4.68,5.55,7.31,1.46,2.45,2.29,5.23,1.99,8.96-3.3-3.62-7.28-4.81-11-6.58-6.54-3.12-11.67-8.03-14.8-14.72-1.66-3.58-1.1-4.72,2.44-6.58,3.98-2.09,7.81-2.07,11.95-.2,8.42,3.81,12.66,10.31,13.63,20.35-2.29-3.18-3.84-5.73-5.77-7.94-2.92-3.34-6.27-6.06-11.66-4.22,2.82,1.27,5.7,1.93,7.68,3.62ZM680.2,424.42c4.38-4.71,9.51-8.22,15.39-10.88,5.6-2.54,11.11-5.4,16.33-8.65,3.35-2.08,6.09-5.11,9.4-7.98-.27,1.27-.39,2.4-.75,3.45-1.99,5.68-3.81,11.44-6.14,16.98-2.87,6.82-7.37,12.52-13.68,16.52-7.39,4.68-15.38,4.96-23.61,2.64-.29-.08-.56-.26-.8-.45-.24-.18-.43-.44-.77-.8,1.57-2.27,3.89-3.14,6.47-3.94,4.98-1.55,10.11-2.98,14.7-5.38,5.6-2.93,8.68-8.21,10.19-14.37-4.81,3.58-6.59,9.99-12.26,12.72-5.41,2.6-10.8,5.18-17.36,5.65.31-2.28,1.44-3.95,2.88-5.51ZM680.48,377.37c-.7,2.06-.89,4.3-1.78,6.46,2.76-8.81-.63-15.82-5.49-22.43-.33.11-.66.21-.99.32,1.39,2.94,3.17,5.75,4.07,8.83.91,3.12,2.2,6.54.09,9.59-1.98-3.8-3.44-8.03-6.09-11.28-2.55-3.12-6.33-5.23-9.63-7.83.02-.15-.05-.51.09-.72,2.47-3.69,5.1-7.2,10.3-6.43,5.17.76,7.38,4.58,8.98,8.98,1.73,4.79,2.14,9.57.46,14.51ZM715.83,374.07c2.59,2.52,3.11,4.45,1.13,7.39-1.6,2.38-3.77,4.48-6.05,6.25-1.98,1.54-4.45,2.44-7.33,3.94,2.02-4.92,7.19-6.45,8.21-11.91-7.12,4.98-10.91,13.29-19.78,14.77,9.12-5.48,15.61-13.13,19.87-23.75,1.64,1.37,2.87,2.26,3.95,3.31ZM711.68,342.87c3.6-3.07,7.19-6.15,10.63-9.08-2.65-.35-3.56.17-9.58,4.95-3.1,2.46-6.35,4.73-9.54,7.09,5.41-14.52,14.67-20.35,28.29-18.58-1.15,3.18-1.95,6.53-3.51,9.46-1.88,3.55-4.52,6.67-8.36,8.38-5.49,2.45-11.01,4.84-16.53,7.22-.49.21-1.09.19-2.02-.38,3.54-3.03,7.08-6.05,10.62-9.07ZM696.37,356.3c-.18-.37-.11-.87-.16-1.3,6.66-.96,12.95,4.41,12.85,11.26-.04,2.7-.59,5.66-1.81,8.04-4.43,8.68-10.96,15.27-20.34,18.64-.22.08-.55-.16-1.18-.36,5.96-4.73,12.41-8.9,14-17.03-4.26,6.71-9.69,12.06-17.47,15.03.81-1.13,1.58-2.29,2.44-3.38,2.7-3.38,5.72-6.55,8.11-10.14,4.22-6.31,7.47-12.97,3.55-20.76ZM691.34,352.93c1.24,2.13,2.3,4.37,3.24,6.65.45,1.1.74,2.45.56,3.61-.79,4.88-2.34,9.47-6.05,13.13,1.07-5.58,3.09-11.17-.71-16.22-.38.04-.76.07-1.14.11.34,2.28.96,4.57.92,6.84-.03,2.28-.53,4.6-1.21,6.78-.7,2.28-1.86,4.41-3.4,6.51,3.04-9.63.48-18.07-4.73-26.04,1.2-2.64,3.59-3.45,5.93-4.1,3.18-.89,4.93-.15,6.6,2.73ZM754.52,303.77c-1.24-2.02-2.9-1.73-4.24-1.58-5.21.58-10.4,1.31-15.59,2.08-2.26.34-4.49.91-6.84,1.12,6.07-4.95,12.52-9.27,20.37-10.6,4.75-.81,9.48-.01,13.97,2.03,2.08.95,4.36,1.49,6.57,2.11,1.45.41,2.96.63,5.37,1.11-9.39,7.69-18.52,13.43-29.97,14.49-6.13.56-11.53-1.47-16.7-4.35-.7-.39-1.07-1.37-1.99-2.6,9.94-1.31,19.32-2.54,29.04-3.82ZM779.87,269.23c-7.95,7.45-17.53,9.96-28.27,7.75-.6-.13-1.18-.36-1.74-.6-.41-.18-.79-.47-1.45-.86,8.77-4.13,18.68-5.22,26.81-11.34-3.02-.92-2.99-.86-8.44,1.39-2.7,1.11-5.53,1.89-8.26,2.93-2.68,1.02-5.3,2.2-8.2,2.85,2.95-5.97,8.01-9.58,13.3-12.89,5.89-3.68,13.17-4.26,27.71-2.29-4.13,4.78-7.43,9.31-11.45,13.07Z"/>
      <path class="cls-1" d="M571.94,66.55c.86-.44,1.72-.88,2.57-1.32-.15-.25-.32-.51-.48-.76-.81.5-1.62,1-2.44,1.5.12.19.23.39.35.57Z"/>
    </g>
  </g>
</svg>