<?xml version="1.0" encoding="UTF-8"?>
<svg id="Layer_2" data-name="Layer 2" xmlns="http://www.w3.org/2000/svg" viewBox="0 0 573.07 242.73">
  <defs>
    <style>
      .cls-1 {
        letter-spacing: -.02em;
      }

      .cls-2 {
        stroke-width: 0px;
      }

      .cls-2, .cls-3, .cls-4 {
        fill: #000;
      }

      .cls-5 {
        letter-spacing: 0em;
      }

      .cls-3 {
        font-family: JolyDisplay-Medium, 'Joly Display';
        font-size: 112px;
        font-weight: 500;
      }

      .cls-3, .cls-4, .cls-6 {
        isolation: isolate;
      }

      .cls-4 {
        font-family: Sudestada, Sudestada;
        font-size: 70px;
      }
    </style>
  </defs>
  <g id="Layer_2-2" data-name="Layer 2">
    <g>
      <g>
        <path class="cls-2" d="M143.71,98.97l.87,1.01c1.47,1.69,2.93,3.38,4.39,5.07,1.3,3.28,2.62,6.79,3.94,10.47,1-2.57,1.99-5.13,2.98-7.7,1.46-3.78,8.74-18.98,10.72-22.85,2.07-4.04,3.93-8.14,5.79-12.25.32-.7.64-1.4.96-2.1.92-2.03,1.84-4.07,2.78-6.09,1.2-2.6,2.8-5.1,4.89-7.25,2.02-2.08,4.64-4.39,7.95-4.63.74-.06,1.48-.14,2.2-.26,5.24-.84,10.15-3.23,13.81-6.52,1.18-1.06,2.27-2.16,3.24-3.36,1.25-1.55,2.33-3.21,3.21-4.94,5.91-11.6,2.11-24.21-8.49-28.16-2.16-.8-4.44-1.19-6.75-1.19-9,0-18.44,5.81-23.14,15.05-1.5,2.94-2.45,6.1-2.72,9.3-.13,1.53-.16,3.13.07,4.65.35,2.31,1.48,4.45,1.64,6.78.21,2.83-.56,5.41-1.36,8.12-.89,3.02-2.05,5.97-3.37,8.87-2.37,5.21-5.24,10.26-8.39,15.16-1.16,1.81-2.38,3.6-3.63,5.36-.14.2-7.14,9.1-12.67,16.13-.02.02-.04.05-.05.07l.08.09,1.02,1.18h.03ZM177.24,24.81c1.97-3.86,4.91-7.12,8.52-9.44,3.31-2.12,7.03-3.29,10.46-3.29,1.74,0,3.4.29,4.94.86,3.82,1.42,6.61,4.48,7.86,8.62,1.35,4.49.74,9.61-1.71,14.44-1.97,3.86-4.91,7.13-8.52,9.44-3.31,2.12-7.03,3.29-10.46,3.29-.87,0-1.72-.07-2.54-.22-.82-.15-1.62-.37-2.4-.65-3.82-1.42-6.61-4.49-7.86-8.62-1.35-4.49-.74-9.61,1.71-14.44h0Z"/>
        <path class="cls-2" d="M144.33,137.6c.9-2.3,1.79-4.59,2.69-6.89,1.6-4.11,3.19-8.21,4.79-12.32.29-.75.58-1.49.87-2.24h0c-1.3-3.67-2.64-7.32-4.02-10.96l-5.37-5.95-.9-1.05h0l-.08-.1h0c-.04.05-.08.1-.12.15-3.41,4.34-6.15,7.81-6.15,7.81-.86,2.82-1.72,5.81-2.58,8.93l3.85,8c2.34,4.87,4.69,9.74,7.03,14.6v.02ZM142.9,110.34c2.43,0,4.4,1.68,4.4,3.76s-1.97,3.76-4.4,3.76-4.4-1.68-4.4-3.76,1.97-3.76,4.4-3.76Z"/>
        <path class="cls-2" d="M114.42,209.55c1.06-1.9,1.97-3.85,2.87-5.8,1.34-2.9,2.61-5.81,3.87-8.74,1.57-3.66,3.1-7.33,4.62-11,1.73-4.19,3.44-8.39,5.14-12.6,1.82-4.5,3.62-9.02,5.41-13.53,1.83-4.59,3.64-9.19,5.45-13.79.78-1.98,1.55-3.95,2.33-5.93-2.4-5.01-4.79-10.03-7.17-15.05l-3.61-7.68c-10.56,38.6-20.54,96.31-20.54,96.31.74-.14,1.36-1.72,1.63-2.2h0Z"/>
      </g>
      <path class="cls-2" d="M59.39,3.72c.12,0,.25,0,.39,0,3.14,0,12.54.89,15.33,7.75,1.06,2.6,1.38,5.98-.02,8.58-.14.27-.31.53-.49.78-1.2,1.65-2.61,3.18-3.44,5-.87,1.91-1.27,4.01-1.27,6.05,0,4.45,2.17,8.81,5.79,12,1.22,1.08,2.62,1.97,4.13,2.69,1.42.68,2.94,1.22,4.51,1.64.4.1.79.2,1.19.28,3.07.66,6.1.88,8.66,2.74,1.53,1.11,2.88,2.39,4.15,3.71,3.23,3.36,5.97,7.06,8.54,10.79,5.23,7.59,9.78,15.52,14.03,23.53.84,1.58,1.67,3.17,2.48,4.76l.08.16.03.06.03.07s.03.05.04.08l.03.08h0v.02h0l9.86,20.48,3.85,8c2.34,4.87,4.69,9.74,7.03,14.6h0c2.31,4.78,4.62,9.56,6.95,14.33,4.66,9.65,9.38,19.27,14.17,28.87,2.39,4.8,4.81,9.59,7.29,14.36,1.24,2.38,2.49,4.76,3.8,7.12.65,1.18,1.32,2.35,2.02,3.51.35.58.71,1.15,1.09,1.72.19.28.39.56.61.83.11.14.22.27.34.39.06.06.12.12.2.18h0s0,0,0,0,.02.02.03.02c.02,0,.04.03.06.04.05.03.09.05.13.05,0-.02,0-.03,0-.05v-.03c-2.44-8.69-4.94-17.37-7.44-26.05-1.26-4.35-2.55-8.69-3.83-13.04l-1.93-6.52-1.96-6.51c-.65-2.17-1.32-4.34-1.99-6.5s-1.33-4.33-2.03-6.49l-2.05-6.49-2.1-6.48c-1.62-4.92-3.28-9.83-5.01-14.72h0c-1.3-3.67-2.64-7.32-4.02-10.96l-6.36-7.1h0l-10.66-13.09-.03-.03c-1.04-1.23-2.05-2.48-3.04-3.74-4.14-5.27-7.88-10.79-11.13-16.49-2.43-4.26-4.56-8.67-6.19-13.21-.76-2.13-1.26-4.32-1.57-6.53-.31-2.27-.86-4.56-.63-6.85.29-2.8.93-5.32.6-8.16-.34-2.95-1.51-5.82-3.57-8.22-1.92-2.24-4.5-4.05-7.41-5.27-1.69-.71-3.39-1.08-5.15-1.31-1.56-.21-3.14-.3-4.78-.42-2.86-.21-5.22-1.43-7.15-3.22s-3.3-3.97-5.4-5.62c-2.33-1.82-4.98-3.42-7.87-4.54-.49-.19-.98-.37-1.48-.53-2.44-.79-7.14-1.72-8.81.79,0,0-1.27,1.9,1.35,2.07l.02.02ZM142.9,110.34c2.43,0,4.4,1.68,4.4,3.76s-1.97,3.76-4.4,3.76-4.4-1.68-4.4-3.76,1.97-3.76,4.4-3.76ZM88.73,18.67c.13,0,.26-.02.39-.02s.26-.01.4-.01h.39c.48,0,.95.02,1.42.05.12,0,.23.02.35.03.12.01.23.02.34.04.11.01.23.03.34.04.11.01.22.03.33.05h.02c.08.01.16.02.24.04.09.01.18.03.27.05.12.02.24.05.36.07s.25.05.37.08.25.06.37.09.24.06.36.1c.12.03.24.07.36.1.24.07.48.15.71.23.11.04.21.07.31.11.19.07.37.14.55.22.08.03.16.06.24.1.18.07.35.16.52.24,4.4,2.08,7.51,5.94,7.98,10.41.86,8.26-7.2,15.15-16.86,14.42-7.4-.57-13.37-5.66-14.03-12-.78-7.5,5.8-13.88,14.25-14.43h.02Z"/>
    </g>
    <g class="cls-6">
      <text class="cls-4" transform="translate(19.88 115.52)"><tspan x="0" y="0">t</tspan><tspan class="cls-5" x="25.69" y="0">h</tspan><tspan x="54.95" y="0">e</tspan></text>
    </g>
    <g class="cls-6">
      <text class="cls-3" transform="translate(11.54 206.55)"><tspan x="0" y="0">N</tspan></text>
    </g>
    <g class="cls-6">
      <text class="cls-3" transform="translate(192.27 206.55)"><tspan class="cls-1" x="0" y="0">T</tspan><tspan x="72.8" y="0">URAL</tspan></text>
    </g>
  </g>
</svg>